<?xml version="1.0" standalone="no"?>
<!DOCTYPE svg PUBLIC "-//W3C//DTD SVG 1.1//EN" "http://www.w3.org/Graphics/SVG/1.1/DTD/svg11.dtd" >
<svg xmlns="http://www.w3.org/2000/svg">
<metadata></metadata>
<defs>
<font id="basscrwregular" horiz-adv-x="1161" >
<font-face units-per-em="2048" ascent="1638" descent="-410" />
<missing-glyph horiz-adv-x="508" />
<glyph horiz-adv-x="0" />
<glyph unicode="&#xd;" horiz-adv-x="508" />
<glyph unicode=" "  horiz-adv-x="508" />
<glyph unicode="&#x09;" horiz-adv-x="508" />
<glyph unicode="&#xa0;" horiz-adv-x="508" />
<glyph unicode="!" horiz-adv-x="525" d="M50 3v433q0 3 3 3h419q3 -1 3 -3v-433q0 -3 -3 -3h-419q-3 0 -3 3zM50 498v938q0 3 3 3h419q3 -1 3 -3v-938q0 -3 -3 -3h-419q-3 0 -3 3zM120 71h284v213q-276 -106 -284 -112v-101zM120 212h1l203 80q-21 70 -25 76h-179v-156zM120 564h105q-42 83 -42 85 q-59 -37 -63 -42v-43zM120 651q34 21 37 26v675l-2 16h-35v-717zM174 686q44 27 46 31v388q0 7 -45 184h-1v-603zM191 1368l148 -575q53 32 65 43v532h-213zM212 669q51 -103 54 -105h138v227zM237 728h2q32 20 41 28v114q0 8 -41 172h-2v-314zM339 368l17 -64q3 2 5 2v62 h-22zM379 314h2q20 9 23 9v45h-25v-54z" />
<glyph unicode="." horiz-adv-x="518" d="M50 3v423q0 3 3 3h412q3 -1 3 -3v-423q0 -3 -3 -3h-412q-3 0 -3 3zM118 68h160q-106 134 -109 136q-47 -40 -51 -46v-90zM118 207q174 152 174 153h-174v-153zM196 228q114 -143 125 -158v-2h79v292h-54q-1 0 -149 -130h-1v-2z" />
<glyph unicode="0" horiz-adv-x="1155" d="M50 3v1430q0 3 3 3h1049q3 0 3 -3v-1430q0 -3 -3 -3h-1049q-3 0 -3 3zM119 230h2l282 538v310q1 3 3 3h341q3 0 3 -3v-355l286 189v126q-10 8 -253 97q-8 5 -370 141q-72 -13 -294 -56v-990zM119 1257l567 107v1h-567v-108zM133 71h43v188h-1q-37 -70 -42 -83v-105z M195 71h42v250q-10 13 -14 23h-3q-25 -48 -25 -51v-222zM240 383q190 -302 199 -312h476q121 118 121 122v674h-2l-284 -185v-324q0 -3 -3 -3h-341q-3 0 -3 3v330zM255 71h45v147q0 6 -45 72v-219zM318 71h42v55q-40 62 -40 65h-2v-120zM379 71h17q-16 25 -17 25v-25z M474 424h207v588h-207v-588zM493 1283l44 -15l37 39h-1q-77 -13 -77 -19zM554 1260l48 -17l84 85h-2q-77 -14 -82 -18zM619 1236q42 -16 45 -16l126 128q-80 -13 -80 -21q-20 -22 -91 -91zM682 1212q46 -18 53 -18q2 0 171 171h-15q-74 -7 -74 -18q-66 -64 -135 -135z M753 1185q3 0 47 -17l196 197h-64q-74 -72 -179 -179v-1zM818 1160l43 -15l175 175v45h-13q-91 -88 -205 -203v-2zM880 1137q42 -16 45 -16q111 112 111 115v57q-80 -78 -156 -156zM942 1114q45 -17 47 -17q47 46 47 51v58h-2q-2 0 -92 -92zM966 71h70v68h-2q-2 0 -68 -68z M1006 1089l28 -9h2v37h-2q-2 0 -28 -28z" />
<glyph unicode="1" d="M50 1019v420q0 4 3 4h1055q3 -1 3 -4v-1436q0 -3 -3 -3h-420q-4 0 -4 3v1013h-631q-3 0 -3 3zM120 1353q10 -11 229 -166l24 -19q383 185 420 202v1h-673v-18zM126 1086h42v188q-4 1 -40 27h-2v-215zM187 1086h44v139q0 2 -43 33h-1v-172zM250 1086h44v94q-2 4 -44 33 v-127zM328 1086h46v37q-42 33 -46 33v-70zM393 1086h32q0 2 -31 23h-1v-23zM407 1143q11 -7 82 -57h262q3 -1 3 -3v-368l286 -220h1v524q-9 49 -85 352h-75q-19 -6 -474 -226v-2zM754 70h41q4 0 29 147q3 9 67 348l-137 105v-600zM833 70h59q68 65 149 149v62 q-131 -130 -208 -208v-3zM841 109q114 111 200 200v57h-1q-186 -183 -186 -188zM861 216q180 177 180 180v51q0 3 -3 3q-164 -162 -164 -166zM881 321q55 53 142 141l-35 27h-1q-92 -89 -92 -93zM903 433q2 0 68 68q0 2 -38 31h-2q-15 -9 -15 -34q-4 -5 -13 -65zM920 70h58 q3 1 63 63v58q-70 -69 -121 -121zM993 1370q0 -5 48 -50v51h-48v-1zM1004 1328q20 -90 28 -90l9 -8v62q0 2 -37 37v-1zM1006 70h35v34h-1q-2 0 -34 -34zM1033 1208l7 -28h1v22q0 2 -8 8v-2z" />
<glyph unicode="2" d="M50 3v940q0 3 3 3h631v70h-631q-3 0 -3 3v420q0 4 3 4h1055q3 -1 3 -4v-916q0 -3 -3 -3h-631v-95h631q3 0 3 -3v-419q0 -3 -3 -3h-1055q-3 0 -3 3zM120 70h291l-193 681q-22 0 -98 3v-684zM120 790l87 -4q-26 90 -28 90h-59v-86zM120 1086h158q3 0 244 130v3 q-302 152 -306 152h-96v-285zM218 876q176 -614 181 -626q19 -6 642 -180v285h-633q-3 0 -3 3v230q1 3 3 3h633v233l-287 104v-48q0 -4 -3 -4h-533zM300 1370l87 -42q0 2 -44 43h-43v-1zM357 1086h394q3 -1 3 -3v-118l287 -103v509h-160q-4 0 -392 -212q-121 -67 -132 -72 v-1zM370 1371q79 -84 94 -84l96 -48q-68 70 -132 132h-58zM410 206h1v3h-1v-3zM416 188q16 -55 16 -58q2 0 57 58l-56 14h-1zM438 110q11 -34 11 -40h12q27 24 98 98q-25 6 -50 13q0 -2 -71 -71zM456 1371q58 -59 123 -122q31 15 40 23q-1 1 -101 99h-62zM489 70h59 q2 0 77 77v2l-46 12zM546 1371l90 -91q28 16 39 20v1q0 3 -70 70h-59zM574 70h59q2 0 61 60q-4 0 -48 13zM633 1371l59 -60q35 17 47 26l-36 34h-70zM661 70h62q4 1 41 40l-50 14zM731 1371l25 -26q40 22 40 23q0 3 -3 3h-62zM751 70h59q2 0 22 22l-48 12zM836 70h69v1 q-3 0 -55 14z" />
<glyph unicode="3" d="M50 3v420q0 4 3 4h631v94h-631q-3 0 -3 3v421q0 3 3 3h631v68h-631q-3 0 -3 3v420q0 4 3 4h1055q3 -1 3 -4v-1436q0 -3 -3 -3h-1055q-3 0 -3 3zM121 591h632q3 0 3 -3v-230q0 -3 -3 -3h-459v-1q549 -266 589 -284h158v215q-10 24 -150 258q-57 98 -117 197 q-521 129 -563 136h-90v-285zM121 1086h123q0 3 -76 287h-47v-287zM134 70h45v285h-45v-285zM197 70h44v268q0 4 -34 17h-10v-285zM211 1373q37 -41 45 -41l59 -4q-3 5 -46 45h-58zM213 1342q1 -3 1 -5h5q0 3 -6 6v-1zM225 1298l56 -212h199q201 148 221 166 q-468 48 -476 48v-2zM258 70h43v242l-43 18v-260zM298 1371q44 -48 53 -48q7 0 60 -6q0 2 -55 56h-58v-2zM320 70h45v211l-45 20v-231zM371 875q24 -5 377 -92v2q-53 89 -53 91h-324v-1zM384 70h41v181q-39 19 -41 19v-200zM384 1373q55 -59 62 -59q56 -6 65 -6q-1 3 -65 65 h-62zM444 70h51v147q-48 23 -51 23v-170zM473 1373q67 -70 73 -70q61 -5 61 -6v1q-30 33 -76 75h-58zM514 70h45v90q-26 46 -44 46q0 2 -1 2v-138zM542 1086h211q3 -1 3 -3v-203q0 -4 -3 -4h-17q300 -508 305 -515v1012h-111q-7 0 -117 -84q-245 -182 -271 -203zM560 1371 q74 -77 81 -77q67 -7 76 -8q-21 23 -87 87h-70v-2zM577 70h38v1q-33 53 -38 58v-59zM598 166q50 -82 62 -96h136v1zM658 1373q36 -38 88 -89q35 25 36 28l-62 61h-62zM748 1373q0 -3 50 -50q30 21 32 25q0 2 -25 25h-57zM835 1371l11 -12q15 11 17 11v3h-28v-2z" />
<glyph unicode="4" horiz-adv-x="1160" d="M50 8v1426q0 3 3 3h417q3 -1 3 -3v-1006h214v524q0 3 3 3h417q3 0 3 -3v-1044q0 -3 -3 -3h-417q-3 0 -3 3v97h-634q-3 0 -3 3zM119 76h6v327q0 3 -3 3h-3v-330zM119 449q11 -9 308 -158q0 -4 21 -11l43 79h-84q-3 0 -3 3v601q-24 24 -283 254h-2v-768zM119 1268 q12 -13 166 -149l2 3l-166 164h-2v-18zM119 1315q88 -89 182 -181q25 22 29 28q-128 130 -205 204h-6v-51zM142 76h43v297q-1 3 -43 23v-320zM153 1366q99 -101 192 -192q0 1 30 29q-71 73 -164 163h-58zM204 76h44v264q0 3 -44 23v-287zM238 1366q148 -151 152 -151l14 16 v32q-46 48 -103 103h-63zM267 76h41v234q0 3 -41 21v-255zM311 1094q18 -14 93 -82v168q-15 -12 -93 -86zM328 1366q0 -2 76 -75v57q0 2 -19 18h-57zM344 100h1q45 80 45 83v87l-46 23v-193zM371 76h383q4 -1 4 -3v-99h283v405q-11 12 -283 263v-280q0 -3 -4 -3h-221z M407 211q2 0 21 35v2q0 3 -21 12v-49zM758 691q244 -228 283 -262v457h-283v-195z" />
<glyph unicode="5" horiz-adv-x="1172" d="M50 3v423q0 3 3 3h638v96h-638q-3 0 -3 3v926q0 4 3 4h1066q3 -1 3 -4v-424q0 -3 -3 -3h-638v-71h638q3 0 3 -3v-950q0 -3 -3 -3h-1066q-3 0 -3 3zM121 71h689q-215 147 -232 156q-335 43 -457 57v-213zM121 345q2 0 14 14h-14v-14zM121 597h637q4 0 4 -3v-50 q289 94 289 97v129q-300 103 -341 115h-296q-4 0 -4 4v62q-284 -183 -289 -186v-168zM121 809h1l288 185v100q1 3 4 3h401q-15 12 -469 288h-225v-576zM124 320q7 0 55 -7l43 46h-59q-2 0 -39 -39zM200 310q6 0 66 -8l55 57h-72q-2 0 -49 -49zM290 299q50 -6 58 -6l53 55 q-15 11 -20 11h-32q-2 0 -59 -60zM371 290q41 -6 55 -6l27 28q0 2 -36 25zM418 1384l107 -64v1l-66 64h-41v-1zM448 281l53 -8l4 4v2q-35 22 -38 22zM451 359q6 -6 425 -288h175v529q-256 -83 -289 -95v-143q0 -3 -4 -3h-307zM487 1385q55 -56 102 -101q34 19 36 23 q0 2 -78 78h-60zM573 1385l69 -69q36 22 38 22q0 2 -47 47h-60zM622 1259q5 -2 263 -162h166v288h-224q-7 0 -205 -125v-1zM661 1385l35 -36q38 24 40 24q0 2 -12 12h-63zM827 884q4 0 7 -2v3h-7v-1zM852 876l43 -14v23h-43v-9zM914 854q4 0 51 -17v48h-51v-31zM984 832 q0 -2 46 -17v70h-46v-53zM1048 810q1 -3 3 -3v78h-3v-75z" />
<glyph unicode="6" horiz-adv-x="1172" d="M50 3v1453q0 3 3 3h1066q3 0 3 -3v-425q0 -3 -3 -3h-638v-70h638q3 -1 3 -4v-951q0 -3 -3 -3h-1066q-3 0 -3 3zM121 72h39v273q-4 0 -39 15v-288zM121 400q2 0 443 -193q0 2 44 153h-194q-4 0 -4 4v232q1 3 4 3h344q4 -1 4 -3v-232q0 -4 -4 -4h-112q0 -2 -84 -288h386 q88 150 103 183v314q-14 10 -405 318h-232q-4 0 -4 3v206q1 3 4 3h196q310 191 311 194q-152 94 -156 94h-444q-116 -114 -200 -201v-786zM121 1240q71 69 147 147h-147v-147zM179 72h42v246q-3 0 -42 17v-263zM240 72h45v218q-3 0 -45 19v-237zM304 72h44v188q-3 4 -44 21 v-209zM365 72h53v157q0 3 -53 25v-182zM436 72h47v132l-47 19v-151zM481 431h210v96h-210v-96zM500 72h23q4 0 21 67v38q-42 17 -44 17v-122zM678 1099h373v112q0 2 -94 60q-263 -163 -279 -171v-1zM705 885q4 -1 27 -18v20h-27v-2zM766 840q7 -8 47 -38v85h-47v-47z M832 788q6 -8 42 -34v133h-42v-99zM838 1385q3 0 35 -20h1v22h-36v-2zM893 740q1 -3 42 -35v182h-42v-147zM893 1354q0 -2 41 -27h1v60h-42v-33zM954 691q2 -3 46 -36v232h-46v-196zM954 1316q5 -6 46 -28v99h-46v-71zM992 72h59v105h-1zM1019 641q3 -6 32 -27v273h-32v-246 zM1019 1277q1 -4 32 -22v132h-32v-110z" />
<glyph unicode="7" d="M50 1021v420q0 3 3 3h1055q3 0 3 -3v-1438q0 -3 -3 -3h-420q-4 0 -4 3v518h-406q-3 0 -3 3v421q0 3 3 3h403q3 0 3 3v63q0 4 -3 4h-628q-3 0 -3 3zM120 1087h631q3 0 3 -3v-203q0 -3 -3 -3h-405v-285h104l407 341q-145 436 -145 439h-364q-10 -3 -213 -117q-12 -7 -15 -7 v-162zM120 1289q136 76 150 82v2h-150v-84zM508 593h243q3 -1 3 -4v-259q3 0 78 -69q62 -58 79 -72l129 183v669h-2zM750 1373q3 -22 29 -45q134 -132 248 -248q7 2 13 10v38q-131 132 -245 245h-45zM754 71h19v194q-3 6 -19 17v-211zM771 1308q29 -97 39 -97l172 -170 q23 18 31 26q-129 131 -242 242v-1zM791 71h44v137q-17 19 -44 40v-177zM813 1180q30 -93 34 -96l87 -85l33 29q-77 79 -154 154v-2zM822 1373q80 -81 218 -217v62q-86 88 -155 155h-63zM852 71h46v75q0 8 -35 37q-4 7 -11 9v-121zM857 1047q28 -85 31 -87q31 27 31 28 l-62 61v-2zM912 1373q60 -62 128 -127v57q0 2 -70 70h-58zM916 71h43v24q0 1 -42 38h-1v-62zM937 164q97 -90 103 -93v238q-17 -21 -103 -145zM998 1373q0 -2 42 -42v42h-42z" />
<glyph unicode="8" d="M50 3v1438q0 3 3 3h1055q3 0 3 -3v-1438q0 -3 -3 -3h-1055q-3 0 -3 3zM120 71h920v78q-8 5 -256 222l-30 25v-36q0 -3 -3 -3h-343q-3 0 -3 3v229q1 4 3 4h343q3 -1 3 -4v-144q5 -7 286 -250v965q-5 0 -455 124v-1q50 -146 65 -196h101q3 0 3 -3v-203q0 -3 -3 -3h-181 q-8 0 -70 -54q-18 -7 -37 -53l-343 -662v-38zM120 188h1q44 84 44 88v275q-32 -24 -45 -38v-325zM120 562q335 271 388 316h-100q-3 0 -3 3v203q1 3 3 3h205l-96 286h-397v-811zM183 310h2q0 2 43 87v205h-1q-41 -34 -44 -34v-258zM247 434h2q41 81 41 86v133 q-32 -24 -43 -36v-183zM307 552q20 30 44 84v67q-35 -28 -44 -36v-115zM370 672q3 0 41 80q-38 -30 -41 -35v-45zM477 427h207v94h-207v-94zM477 948h207v70h-207v-70zM554 1373q17 -48 19 -48l51 -14q-1 2 -62 62h-8zM590 1373q71 -75 77 -75q70 -18 73 -18q0 2 -93 93h-57 zM675 1373q104 -107 110 -107l79 -20q-60 62 -127 127h-62zM765 1373q137 -140 141 -140q73 -20 78 -20q-94 95 -160 160h-59zM852 1373q170 -172 174 -172q10 -3 14 -3v57q-52 54 -118 118h-70zM950 1373q39 -41 90 -90v62q0 2 -28 28h-62z" />
<glyph unicode="9" d="M50 3v420q0 4 3 4h631v69h-631q-3 0 -3 3v942q0 3 3 3h1055q3 0 3 -3v-1438q0 -3 -3 -3h-1055q-3 0 -3 3zM120 566h180q0 2 -180 161v-161zM120 777q16 -17 236 -211h395q3 0 3 -3v-203q0 -3 -3 -3h-329q-7 -8 -56 -101q443 -184 452 -185h223v428h-1q-3 -1 -5 -1 q-58 69 -309 354h-316q-3 0 -3 3v229q0 3 3 3h68q-186 253 -212 286h-146v-596zM121 71h42v286h-42v-286zM182 71h43l2 8v278h-45v-286zM245 112h2q33 60 42 82v163h-44v-245zM266 71h451v2l-369 150zM306 223q53 91 53 98v36h-53v-134zM326 1373l101 -103q21 8 45 14 q-36 38 -88 89h-58zM351 1318q43 -57 45 -57l11 3q0 2 -56 56v-2zM376 352q3 0 3 3v2h-3v-5zM411 1373q78 -81 83 -81q42 13 43 16l-67 65h-59zM418 1230q87 -120 107 -143h226q3 0 3 -3v-204q0 -8 58 -70q40 -49 49 -56l180 17v602h-174q-20 -5 -449 -143zM477 923h207v95 h-207v-95zM498 1373l59 -61l48 16q0 2 -45 45h-62zM588 1373l37 -39q21 8 45 14v2q0 1 -23 23h-59zM674 1373q14 -17 18 -17q37 12 51 15v2h-69zM889 721q35 -42 45 -51v54h-1q-41 -3 -44 -3zM953 648q0 -2 42 -48h1v131q-40 -4 -43 -4v-79zM1013 583q0 -8 28 -35v187 q-28 0 -28 -4v-148z" />
<glyph unicode=":" horiz-adv-x="491" d="M50 3v397q0 2 3 2h385q3 0 3 -2v-397q0 -3 -3 -3h-385q-3 0 -3 3zM50 449v397q0 3 3 3h385q3 0 3 -3v-397q0 -2 -3 -2h-385q-3 0 -3 2zM114 64h31q4 0 19 65q3 4 57 208h-107v-273zM114 512h263v101q-1 2 -199 111q-64 -48 -64 -50v-162zM114 717q87 64 91 68h-91v-68z M181 64h81v1q-3 1 -67 50zM205 149l105 -81l-3 -4h70v127q0 6 -95 146h-27zM208 747q4 -5 169 -96v134h-117q-48 -37 -52 -38zM323 336q51 -76 53 -81h1v82h-54v-1z" />
<glyph unicode="=" horiz-adv-x="1060" d="M50 3v379q0 3 3 3h954q3 0 3 -3v-379q0 -3 -3 -3h-954q-3 0 -3 3zM50 3v392q0 3 3 3h381q3 -1 3 -3v-392q0 -3 -3 -3h-381q-3 0 -3 3zM50 444v392q0 3 3 3h381q3 0 3 -3v-392q0 -3 -3 -3h-381q-3 0 -3 3zM50 468v381q0 3 3 3h403l4 3h2l4 -3h541q3 -1 3 -3v-381 q0 -3 -3 -3h-954q-3 0 -3 3zM113 63h668v2l-493 222h-2q-168 -104 -173 -108v-116zM113 63h31q4 0 18 65q3 4 57 205h-106v-270zM113 506h260v100q-1 2 -196 110q-64 -48 -64 -50v-160zM113 530h162l20 131q-3 0 -182 -73v-58zM113 623q172 69 189 78l12 88h-201v-166z M113 708q86 64 90 68h-90v-68zM119 222h1q33 19 38 25v75h-39v-100zM175 257h2q37 23 39 26v39h-41v-65zM179 63h80v2q-3 0 -66 49zM203 148l104 -81l-3 -4h69v125q0 6 -94 145h-27zM206 738q4 -5 167 -94v132h-115q-48 -37 -52 -38zM233 292l38 23v7h-38v-30zM307 530h37 v230h-2q0 -8 -35 -230zM320 332q50 -75 52 -80h1v81h-53v-1zM321 308q535 -243 543 -245h83v152l-110 107h-495q-21 -12 -21 -14zM361 530h39v259h-39v-259zM415 530h40v259h-40v-259zM472 530h40v226q-29 33 -30 33h-10v-259zM528 789q131 -135 256 -259h90q14 24 73 169 v90h-419zM529 530h38v171q0 2 -38 38v-209zM584 530h47v107q-6 9 -47 48v-155zM647 530h41v49q0 2 -41 41v-90zM705 530h32q0 2 -32 32v-32zM885 322q18 -20 62 -61v12q-1 2 -49 49h-13zM910 530h37v83h-2q0 -4 -35 -83zM923 322q0 -2 24 -24v24h-24z" />
<glyph unicode="?" d="M50 690v749q0 4 3 4h1055q3 -1 3 -4v-940q0 -3 -3 -3h-420q-4 0 -4 3v519h-207v-328q0 -3 -4 -3h-420q-3 0 -3 3zM120 1042q253 -260 279 -285h8v327q0 3 3 3h341q3 0 3 -3v-518h196q-67 564 -70 576l-416 231h-344v-331zM128 757h41v181q-18 22 -41 44v-225zM188 757h42 v119q-9 13 -42 44v-163zM249 757h45v54q-10 13 -45 47v-101zM312 757h36q0 2 -36 36v-36zM540 1371l500 -277v279h-500v-2zM684 3v434q1 4 4 4h420q3 -1 3 -4v-434q0 -3 -3 -3h-420q-4 0 -4 3zM754 71h62q0 3 -62 62v-62zM754 160q36 -38 89 -89h63q-79 81 -152 152v-63z M754 284h2q129 81 135 84v1h-137v-85zM760 244q121 -123 174 -173h54q-7 10 -204 188q-24 -14 -24 -15zM816 278l224 -204v295h-76q-7 0 -148 -90v-1zM922 1098q8 -76 12 -76q104 -103 106 -104v62q-52 54 -118 118zM934 996q9 -85 14 -85l92 -90v69q-59 61 -106 106z M943 1104q24 -25 97 -96v42q-11 9 -97 54zM948 883q6 -75 16 -75l76 -74v59q-39 40 -92 91v-1zM959 786q8 -72 12 -76l69 -66v62q-3 4 -81 80zM971 684q8 -71 13 -71q2 -1 42 -42v-2l-2 -3h16v50q0 2 -69 68zM984 585q1 -11 1 -17v-2h19q0 2 -20 20v-1z" />
<glyph unicode="A" d="M50 3v1436q0 4 3 4h1055q3 -1 3 -4v-1436q0 -3 -3 -3h-420q-4 0 -4 3v518h-207v-518q0 -3 -4 -3h-420q-3 0 -3 3zM120 292q7 -8 271 -221h14v518q1 4 3 4h343q3 -1 3 -4v-518h287v821q-2 4 -380 271q-181 127 -192 137l-349 -160v-848zM120 1179q416 192 420 192v2h-420 v-194zM134 71h43v126q-15 15 -43 36v-162zM196 71h42v79q-5 3 -42 33v-112zM256 71h45v25q-16 17 -45 37v-62zM320 71h12q0 3 -12 11v-11zM405 881v203q1 3 3 3h343q3 0 3 -3v-203q0 -3 -3 -3h-343q-3 0 -3 3zM477 948h207v70h-207v-70zM506 1315q35 -23 37 -23l75 76h-2 q-98 -45 -110 -53zM557 1280l34 -24q49 48 117 117h-58q-2 -1 -93 -93zM607 1244q35 -23 37 -23l151 152h-59q-77 -75 -129 -129zM658 1210q0 -1 36 -26h1q97 94 190 189h-63q-39 -36 -164 -163zM711 1171l34 -23q132 129 225 225h-58q-105 -104 -201 -202zM760 1135 q5 -1 44 -29q237 238 237 240v27h-43q-103 -101 -238 -238zM818 1095l39 -26q184 185 184 187v61h-1q-93 -90 -222 -222zM871 1058q1 0 35 -25l135 137v57q-167 -163 -170 -169zM922 1022l35 -25q84 85 84 87v58q-65 -64 -119 -120zM971 987l39 -27q31 30 31 37v58h-1 q-2 0 -69 -68zM1024 949q16 -11 17 -11v27h-1q-2 0 -16 -16z" />
<glyph unicode="B" horiz-adv-x="1157" d="M50 3v1429q0 4 3 4h946q3 -1 3 -4v-486q1 -3 3 -3h99q3 0 3 -3v-937q0 -3 -3 -3h-1051q-3 0 -3 3zM121 71h117q6 0 261 63v2q0 3 -378 401v-466zM121 591q30 -33 392 -417q26 -26 26 -29l497 125v604h-100q-3 0 -3 3v376q-368 113 -375 113h-437v-775zM394 71h74 q0 2 -15 15q-54 -13 -59 -13v-2zM405 358v229q1 3 3 3h341q3 -1 3 -3v-229q0 -3 -3 -3h-341q-3 0 -3 3zM405 877v202q1 3 3 3h238q3 0 3 -3v-202q0 -3 -3 -3h-238q-3 0 -3 3zM474 93q1 -3 22 -22h63q0 2 -34 34q-47 -12 -51 -12zM476 424h204q3 0 3 4v91h-207v-95zM476 943 h102v70h-102v-70zM547 110q0 -3 39 -39h58q0 2 -51 51q-41 -11 -46 -11v-1zM615 128q0 -2 57 -57h59q0 2 -68 68q-45 -11 -48 -11zM684 144q0 -3 73 -73h63l-85 86q-48 -12 -51 -12v-1zM688 1365q3 0 35 -10v11h-35v-1zM740 1349l46 -14v31h-46v-17zM755 161q65 -65 93 -90 h57l-102 103q-48 -10 -48 -13zM803 1332q0 -3 43 -15v49h-43v-34zM825 179q49 -51 108 -108h71l-124 123q-47 -13 -55 -13v-2zM865 1311q15 -4 42 -13v68h-42v-55zM902 198l128 -127h6v57q-80 83 -85 83q-49 -10 -49 -13zM925 1292l8 -2v76h-8v-74zM973 218q1 -3 63 -64v59 q-12 15 -17 15z" />
<glyph unicode="C" horiz-adv-x="1156" d="M50 3v1430q0 3 3 3h1050q3 -1 3 -3v-417q0 -3 -3 -3h-628v-588h131q6 0 6 1l11 -1h480q3 -1 3 -3v-419q0 -3 -3 -3h-1050q-3 0 -3 3zM119 71h10v648q-10 -3 -10 -6v-642zM119 755q283 134 286 134v190q1 3 3 3h420v2q-705 201 -709 201v-530zM119 1325q0 -3 10 -5v46h-10 v-41zM147 71h45v678h-1q-44 -20 -44 -22v-656zM147 1314q6 0 45 -12v64h-45v-52zM211 71h43v707h-2q-38 -18 -41 -18v-689zM211 1298q0 -3 43 -13v81h-43v-68zM271 71h51v740h-2q-49 -23 -49 -25v-715zM271 1281q0 -3 51 -15v34q0 8 -45 66h-6v-85zM322 1366 q83 -120 91 -128q549 -156 554 -156h70v284h-715zM340 71q47 54 47 63v707h-2q-45 -20 -45 -23v-747zM340 1260q10 -3 14 -3q-12 18 -12 20h-2v-17zM388 71h649v45q-2 3 -121 40q-371 117 -375 117l-153 -200v-2zM404 154h3q0 3 40 54v147h-39q-3 0 -3 3v493h-1v-697z M465 235q42 49 42 57v63h-42v-120zM526 313q2 1 32 42h-32v-42zM566 306q5 -5 128 -42q323 -103 343 -108v199h-433q-2 0 -38 -49z" />
<glyph unicode="D" d="M50 3v420q0 4 3 4h101v591h-101q-3 0 -3 3v418q0 4 3 4h1055q3 -1 3 -4v-1436q0 -3 -3 -3h-1055q-3 0 -3 3zM120 71h606v2q-29 18 -310 211v1q-293 -82 -296 -82v-132zM120 240q254 69 254 73q-147 101 -150 101v-54q0 -3 -3 -3h-101v-117zM120 1087h101q3 0 3 -3v-623 q80 -59 414 -284q8 0 402 -85v916q-342 263 -349 266q-504 97 -528 99h-43v-286zM368 1371q31 -4 261 -49q0 1 -67 51h-194v-2zM511 360v724q0 3 3 3h237q3 0 3 -3v-724q0 -3 -3 -3h-237q-3 0 -3 3zM581 427h103v591h-103v-591zM622 1373q0 -2 35 -27q1 0 26 27h-61z M672 1334q32 -25 34 -25l62 64h-57q-2 0 -39 -39zM715 124q1 -2 41 -29h1v21zM720 1297l40 -30h2q60 59 105 106h-71q-2 0 -76 -76zM776 82q0 -2 14 -11h29v31l-43 10v-30zM776 1255l37 -28l144 146h-63q-54 -52 -118 -118zM827 1216l33 -25h1q92 90 179 179v3h-55 q-81 -78 -158 -157zM836 71h47v16q0 4 -47 11v-27zM877 1179q0 -1 34 -26l129 130v59q-99 -97 -163 -163zM900 71h43v5l-43 9v-14zM925 1142l37 -28l78 79v63q-53 -50 -115 -114zM976 1101q3 0 34 -24l30 31v58q-3 -1 -64 -63v-2zM1026 1066q9 -10 14 -11v25q-2 0 -14 -14z " />
<glyph unicode="E" d="M50 3v1434q0 3 3 3h1055q3 0 3 -3v-419q0 -3 -3 -3h-631v-69h631q3 0 3 -3v-419q0 -4 -3 -4h-631v-94h631q3 -1 3 -3v-420q0 -3 -3 -3h-1055q-3 0 -3 3zM121 70h51v46q-2 5 -49 42h-2v-88zM121 206q2 -3 90 -73l830 174v48h-632q-3 0 -3 3v229q1 3 3 3h168q5 0 260 157 q72 42 82 51q-16 16 -84 77h-426q-3 0 -3 3v68q-16 -4 -285 -66v-674zM121 917q116 25 129 31l111 423h-240v-454zM189 70h42q-39 32 -40 32h-2v-32zM253 101q31 -31 40 -31h3v45l-43 -10v-4zM289 956h1q59 11 59 23q2 0 57 57v45q1 3 3 3h45l287 285v2h-70 q-372 -369 -372 -374q-4 -22 -10 -41zM312 1039q137 135 331 332h-54q-9 0 -59 -54q-198 -196 -198 -200q-20 -71 -20 -78zM315 70h42v57q-42 -8 -42 -11v-46zM343 1157q99 96 213 212v2h-57q-9 0 -48 -44q-88 -84 -88 -91q-20 -76 -20 -79zM374 976h1l31 6v26q-2 0 -32 -32 zM375 70h45v69h-1l-44 -7v-62zM375 1279q41 39 92 92h-58q-15 -8 -21 -39zM439 70h43v83q-1 0 -43 -9v-74zM484 1084h60q24 20 287 285v2h-58q-8 0 -45 -40q-132 -131 -244 -245v-2zM516 70h47v100q-47 -8 -47 -12v-88zM574 1084h57q141 139 286 287h-57q-98 -95 -286 -285 v-2zM581 70h42v113q-42 -8 -42 -11v-102zM642 70h42v125l-42 -8v-117zM649 590h392v90q0 8 -40 42q-45 43 -54 49q-266 -162 -298 -179v-2zM659 1084h57q4 0 253 251q0 2 -30 30q-129 -127 -280 -281zM702 70h45v139q-40 -9 -45 -9v-130zM745 1084h58q9 0 51 47 q95 93 159 159l-31 31q-12 -9 -237 -235v-2zM766 70h43v151q-43 -7 -43 -10v-141zM826 70h53v165h-2q-51 -8 -51 -12v-153zM835 1084h58q67 66 148 149v28q0 2 -15 15q0 -2 -191 -190v-2zM890 875q25 -26 150 -139h1v139h-151zM896 70h46v179l-46 -9v-170zM920 1084h118 q3 0 3 3v116h-1q-66 -63 -120 -119zM959 70h44v192q-44 -7 -44 -11v-181zM986 1369q0 -2 54 -54h1v53q0 3 -3 3h-52v-2zM1021 70h20v200h-1q-3 0 -19 -4v-196z" />
<glyph unicode="F" d="M50 3v1436q0 4 3 4h1055q3 -1 3 -4v-420q0 -3 -3 -3h-631v-68h631q3 -1 3 -3v-421q0 -3 -3 -3h-631v-518q0 -3 -4 -3h-420q-3 0 -3 3zM120 73q0 -3 3 -3h9v132h-1q-11 -8 -11 -10v-119zM120 239h1q275 190 286 197v152q0 3 3 3h291q10 8 55 67l-298 220h-48q-3 0 -3 3 v203q0 3 3 3h290q-240 238 -245 239q-318 -156 -335 -166v-921zM120 1202h1q305 151 346 169v2h-347v-171zM151 70h51v180h-2q-47 -32 -49 -36v-144zM221 70h45v225q-41 -29 -45 -30v-195zM284 70h42v267q-30 -20 -42 -30v-237zM345 70h40q3 0 3 3v305h-1q-35 -21 -42 -29 v-279zM405 71h2v321h-2v-321zM492 1343q16 -17 261 -256h62l-278 280q-42 -22 -45 -22v-2zM520 878q15 -13 259 -192l154 190v2h-413zM557 1373q125 -128 286 -286h62q-126 128 -286 286h-62zM647 1373q125 -128 286 -286h59q-126 128 -286 286h-59zM733 1373 q274 -274 274 -275q-9 -10 -9 -11h43v44l-3 -2h-1l-246 244h-58zM750 591h291v287h-56q-9 0 -34 -37q-11 -12 -201 -250zM819 1373q91 -93 222 -222v62q-93 95 -160 160h-62zM909 1373q68 -70 132 -132v59q0 2 -73 73h-59zM996 1373q0 -2 45 -45v45h-45z" />
<glyph unicode="G" d="M50 3v1436q0 4 3 4h1055q3 -1 3 -4v-418q0 -3 -3 -3h-631v-591h207v426q1 3 4 3h420q3 0 3 -3v-850q0 -3 -3 -3h-1055q-3 0 -3 3zM120 71h56q4 4 214 480q17 33 17 42v491q0 3 3 3h631v78l-290 160l-631 -169v-1085zM120 1193h1q3 0 3 3l-3 2h-1v-5zM120 1227 q23 -26 28 -26l48 12q0 2 -76 76v-62zM120 1317q95 -98 99 -98q45 12 45 14l-129 127v2l10 11h-25v-56zM149 1373q133 -135 137 -135l46 11q-64 66 -124 124h-59zM227 71h43v120h-1q-42 -95 -42 -101v-19zM236 1373l116 -118q48 12 50 15l-104 103h-62zM289 71h42v134 q0 8 -30 57q-9 -19 -12 -31v-160zM321 304l121 -233h483q35 31 116 114v601h-56q-174 -180 -231 -242v-184q0 -3 -3 -3h-341q-3 0 -3 3v138h-2q-84 -191 -84 -194zM326 1373q95 -98 99 -98l45 11v1q-19 22 -85 86h-59zM349 71h45v13q0 3 -43 88h-2v-101zM411 1373l80 -81 q57 14 57 17l-65 64h-72zM511 1373q0 -2 59 -59q2 0 49 12q0 2 -46 47h-62zM601 1373q1 -4 40 -41q1 0 47 13q0 2 -28 28h-59zM686 1373q19 -22 23 -22l45 11v1q0 3 -9 10h-59zM754 599q38 36 180 187h-180v-187zM773 1373l3 -5q7 3 14 3v2h-17zM802 1337l239 -132v168h-104 q-14 -2 -135 -34v-2zM979 71h62v61q-13 -10 -62 -61z" />
<glyph unicode="H" horiz-adv-x="1156" d="M50 3v1430q0 3 3 3h419q3 0 3 -3v-490h203q4 0 4 4v486q0 3 3 3h418q3 0 3 -3v-1430q0 -3 -3 -3h-418q-3 0 -3 3v516h-207v-516q0 -3 -3 -3h-419q-3 0 -3 3zM119 71h285v516q0 3 3 3h341q3 -1 3 -3v-291q5 4 284 311v705l-284 -60v-375q0 -3 -3 -3h-247 q-14 -17 -141 -229q-3 -3 -241 -392v-182zM119 323h2q0 2 193 316q0 7 -157 405q-3 0 -38 -28v-693zM119 1062q31 21 285 215v90h-285v-305zM200 1036q0 -5 41 -111h2v184h-2q-37 -27 -41 -33v-40zM260 883q0 -4 42 -113h1v385q-27 -18 -43 -34v-238zM322 726q0 -5 15 -45h3 q27 44 27 48v474q-18 -12 -45 -34v-443zM385 757h2q40 67 40 71v46h-20q-3 0 -3 3v354q-5 -1 -19 -14v-460zM751 71h284v119q0 6 -119 194q-12 22 -12 24h-2q-145 -158 -151 -167v-170zM751 1289l284 59v19h-284v-78zM929 437q0 -7 106 -175v291q-2 -1 -106 -116z" />
<glyph unicode="I" d="M50 3v420q0 4 3 4h313v591h-313q-3 0 -3 3v418q0 4 3 4h1055q3 -1 3 -4v-418q0 -3 -3 -3h-313v-591h313q3 -1 3 -4v-420q0 -3 -3 -3h-1055q-3 0 -3 3zM120 1087h315q3 0 3 -3v-329q9 -7 285 -152v422q0 3 -153 52q-431 139 -450 144v-134zM120 1264q0 -8 70 -26 q0 -2 23 -8q0 2 -93 93v-59zM120 1351q134 -136 138 -136l88 -28q-93 95 -186 186h-40v-22zM123 71h42v286h-42v-286zM183 71h44v222q0 7 -28 31q0 3 -16 14v-267zM188 1373q197 -200 202 -200q68 -24 83 -27q-124 127 -226 227h-59zM218 357l299 -286h337q7 0 46 39 q77 71 95 85l-78 162h-191q-3 0 -3 3v203q-4 1 -285 151v-354q0 -3 -3 -3h-217zM244 71h12q34 75 34 81v84q-28 31 -46 45v-210zM275 1373q239 -242 243 -242l45 -14q0 1 19 18q-100 103 -237 238h-70zM295 71h169q-105 102 -118 112zM307 186h2q9 20 9 23t-11 11v-34z M373 1373q84 -86 223 -224q4 0 33 31l-194 193h-62zM463 1373q73 -75 180 -180q31 28 31 29l-152 151h-59zM549 1373l137 -138q4 0 31 29l-110 109h-58zM602 1104q88 -29 121 -38v18q1 3 3 3h315v286h-155q-35 -32 -284 -269zM635 1373q23 -26 96 -96q32 28 33 31l-67 65 h-62zM725 1373q1 -3 52 -53l32 30l-25 23h-59zM812 1373q0 -2 10 -11q0 1 10 11h-20zM912 71h129v118h-1q-126 -114 -128 -118zM957 355l64 -133q9 5 20 18v117h-84v-2z" />
<glyph unicode="J" horiz-adv-x="1156" d="M50 3v846q0 3 3 3h419q3 0 3 -3v-424h207v588h-629q-3 0 -3 3v417q0 3 3 3h1050q3 0 3 -3v-1430q0 -3 -3 -3h-1050q-3 0 -3 3zM119 71h722q-17 17 -332 284h-101q-3 0 -3 3v176q-9 9 -117 84q-6 0 -169 -88v-459zM119 571l286 150v62h-286v-212zM119 1082h394 q94 71 99 73q0 3 -449 212h-44v-285zM251 1365q391 -184 395 -184q216 161 247 186h-642v-2zM323 636q70 -50 82 -55v98h-1q-62 -30 -81 -43zM566 355q0 -2 31 -28h1v28h-32zM573 1082h25v17h-1q-19 -13 -24 -15v-2zM615 313q8 -9 43 -38v80h-43v-42zM615 1082h43v64 q-43 -31 -43 -33v-31zM677 259q31 -27 51 -43v139h-51v-96zM677 1082h51v115h-2q-46 -36 -49 -36v-79zM745 208h1q3 0 45 10v1027q-43 -30 -46 -36v-127q6 0 6 -3v-721q0 -3 -6 -3v-147zM773 178q112 -97 125 -107h139v164q-247 -54 -264 -57zM810 222l41 8v1036 q-33 -1 -41 -6v-1038zM870 235l42 9v1027q-37 -3 -42 -3v-1033zM870 1303h1l166 13v51h-82q-79 -59 -85 -62v-2zM930 249q5 0 45 9v1017l-45 -3v-1023zM993 262h2q42 7 42 11v1007q-7 0 -44 -3v-1015z" />
<glyph unicode="K" d="M50 3v1434q0 3 3 3h421q3 0 3 -3v-491h103v491q0 3 3 3h421q3 0 3 -3v-491h101q3 0 3 -3v-940q0 -3 -3 -3h-420q-3 0 -3 3v517h-208v-517q0 -3 -3 -3h-421q-3 0 -3 3zM121 71h8v493h-2q-2 0 -6 -6v-487zM121 604q230 163 380 273h-92q-3 0 -3 3v280q0 7 -38 50 q-138 160 -140 161h-107v-767zM148 71h44v539q-41 -29 -44 -31v-508zM211 71h43v583h-1q-42 -29 -42 -31v-552zM271 71h53v632h-1q-48 -32 -52 -37v-595zM278 1369q108 -127 128 -148v150h-128v-2zM341 71h47v679h-2q-42 -30 -45 -34v-645zM405 71h1v519l3 2h39v167 q-15 19 -15 22h-4q-24 -16 -24 -20v-690zM460 802q151 -198 163 -210h129q3 -1 3 -3v-402q206 176 286 247v443h-102q-3 0 -3 3v491h-285v-491q0 -3 -3 -3h-81q-7 0 -79 -55l-28 -18v-2zM467 592h41v88q-37 48 -40 54h-1v-142zM527 592h45v1q0 8 -45 62v-63zM755 71h214 l-137 135q-72 -63 -77 -65v-70zM860 229l3 -1q2 0 33 32h-2zM877 214q0 -2 31 -31q57 54 133 133v62q-73 -72 -164 -164zM922 169q0 -2 29 -30q88 90 90 90v59q-65 -63 -119 -119zM964 125l31 -29l46 48v57h-1q-2 0 -76 -76zM1007 82l14 -11h20v45q-2 0 -34 -34z" />
<glyph unicode="L" d="M50 3v1436q0 4 3 4h420q4 -1 4 -4v-493q0 -4 1 -4l-1 -8v-507h631q3 -1 3 -4v-420q0 -3 -3 -3h-1055q-3 0 -3 3zM120 70h11q2 0 45 122q225 635 231 660v166h-2l-285 -112v-836zM120 945q22 9 26 9q0 2 -26 26v-35zM120 1008q42 -45 46 -45l42 16q-36 38 -88 88v-59z M120 1095q49 -51 108 -108q21 9 41 15v2q-66 67 -149 149v-58zM120 1180q79 -80 169 -169h3q3 0 3 3q-29 85 -34 89l-141 139v-62zM120 1270q60 -62 127 -127v2q-33 92 -37 96l-90 88v-59zM120 1357q0 -2 76 -76v2q-29 81 -34 88h-42v-14zM171 70h870v94l-361 191h-270 q-3 0 -3 3v377h-2zM202 1370q8 -19 127 -343q19 6 78 29v315h-205v-1zM759 354l282 -149v150h-282v-1z" />
<glyph unicode="M" horiz-adv-x="1581" d="M50 3v1430q0 3 3 3h1475q3 0 3 -3v-1430q0 -3 -3 -3h-419q-3 0 -3 3v1010h-103v-1010q0 -3 -3 -3h-419q-3 0 -3 3v1010h-103v-1010q0 -3 -3 -3h-419q-3 0 -3 3zM119 71h201q-10 9 -201 117v-117zM119 230l87 -49q9 13 198 241q1 2 1 6v651q1 3 3 3h236q4 0 4 -3v-920 q4 0 285 60v661q-404 361 -455 403q-353 -163 -359 -167v-886zM119 1157q21 7 21 10l-21 19v-29zM119 1214q36 -39 41 -39q27 13 38 17v2q0 2 -77 77h-2v-57zM119 1303q0 -9 45 -49q2 -3 53 -53q37 18 48 22v1q-76 78 -142 143h-4v-64zM150 1367l133 -135q36 16 43 22 l-114 113h-62zM237 164q15 -12 157 -93h11v295q-2 0 -168 -202zM240 1367q102 -105 106 -105q35 17 39 17v1q-21 23 -86 87h-59zM325 1367q2 -5 79 -79q20 10 40 18q0 2 -60 61h-59zM411 1367q1 -3 51 -51l42 18v2q0 2 -31 31h-62zM501 1367l21 -24q31 15 42 19q0 2 -4 5 h-59zM515 1299l418 -369v149q1 3 3 3h237q3 0 3 -3v-776l284 94v736q-11 14 -203 232v2h-597q-134 -59 -145 -68zM648 71h4v51h-4v-51zM671 71h43v65q-10 -2 -43 -9v-56zM731 71h43v77q-43 -6 -43 -11v-66zM793 71h44v91l-44 -9v-82zM856 71h42v103h-2l-40 -7v-96zM916 71 h17v111q-4 0 -17 -3v-108zM1176 71h284v289q-280 -94 -284 -94v-195zM1312 1362q0 -8 44 -54v59h-44v-5zM1375 1286q0 -2 42 -48v129h-42v-81zM1435 1217q0 -1 25 -28v178h-25v-150z" />
<glyph unicode="N" d="M50 3v1434q0 3 3 3h1055q3 0 3 -3v-1434q0 -3 -3 -3h-421q-3 0 -3 3v1013h-205q-3 0 -3 -3v-1010q0 -3 -3 -3h-420q-3 0 -3 3zM121 71h58q212 146 227 158v751q-23 19 -91 58q-61 -103 -194 -322v-645zM121 787q4 0 6 12v356q0 3 -4 5h-2v-373zM121 1202l285 -177v58 q1 3 3 3h343q3 -1 3 -3v-581q168 95 173 101q112 299 112 302v466h-919v-169zM144 824h2q45 77 45 81v210q-1 4 -47 31v-322zM208 931q4 3 43 70v77q-5 6 -43 28v-175zM244 71h162v113q-155 -106 -162 -113zM270 1033h1l14 25l-15 9v-34zM755 76q0 -2 4 -5h59q-1 3 -63 64 v-59zM755 163q39 -41 91 -92h71l-150 149h-1l-11 -2v-55zM755 254l285 45v324h-2q-280 -161 -283 -161v-208zM792 223q79 -81 152 -152h63q-81 83 -161 161q-51 -7 -54 -7v-2zM869 235q162 -164 166 -164h5v53l-120 121q-39 -8 -51 -8v-2zM944 248q23 -26 96 -96v59 q0 2 -45 45zM978 630h1q61 34 61 36v132h-2zM1018 257l22 -20v26q-22 -3 -22 -6z" />
<glyph unicode="O" d="M50 3v1438q0 3 3 3h1055q3 0 3 -3v-1438q0 -3 -3 -3h-1055q-3 0 -3 3zM120 465q253 169 285 194v425q1 3 3 3h343q3 0 3 -3v-724q0 -3 -3 -3h-343q-3 0 -3 3v254q-182 -121 -191 -130q284 -311 298 -330l528 279v496q-5 6 -467 312q-34 23 -37 23l-416 -158v-641z M120 1145l595 226v2h-595v-228zM134 71h43v388h-1q-39 -25 -42 -29v-359zM194 71h44v334q0 1 -42 46h-2v-380zM256 71h45v264q-43 47 -43 50h-2v-314zM320 71h34l8 2v191q0 7 -42 49v-242zM380 84q49 26 52 26v81q-50 56 -52 56v-163zM435 71h605v194q-152 45 -155 45 q-404 -214 -450 -237v-2zM450 121q26 12 30 17q-28 31 -30 31v-48zM477 427h204q3 0 3 3v588h-207v-591zM579 1280q7 -4 110 -73h2l-84 85q-28 -10 -28 -12zM625 1298q148 -150 159 -155q4 -1 173 -115h2l-287 289q-43 -17 -47 -17v-2zM691 1325q152 -155 349 -349v57 q-133 135 -307 307q-31 -12 -42 -15zM753 1348q139 -142 287 -287v71l-235 236zM826 1373q95 -97 214 -214v63q-74 76 -151 151h-63zM916 1373q63 -66 124 -124v59q-1 3 -66 65h-58zM933 334q3 0 107 -32v89h-2q-103 -53 -105 -57zM1002 1373q0 -2 38 -37v37h-38z" />
<glyph unicode="P" d="M50 3v1435q0 3 3 3h1055q3 0 3 -3v-914q0 -3 -3 -3h-631v-518q0 -3 -4 -3h-420q-3 0 -3 3zM120 70h118v1l-118 66v-67zM120 180q7 -6 191 -110h94v299q0 6 -65 101q-110 165 -113 171h-107v-461zM120 676h15l41 39q-24 37 -27 39l-29 -31v-47zM120 751q2 0 20 20 q-19 26 -20 26v-46zM120 864q247 -372 285 -425v149q1 3 3 3h632v380q-4 5 -647 278q-66 29 -193 82q-80 -69 -80 -70v-397zM120 1309q68 59 73 61v1h-73v-62zM163 676h39q-15 24 -17 24zM233 1356q31 -13 34 -13v28h-18q-16 -12 -16 -14v-1zM284 1334q42 -17 44 -17v54h-44 v-37zM363 1300q5 0 45 -19v90h-45v-71zM405 880v203q1 3 3 3h343q3 -1 3 -3v-203q0 -4 -3 -4h-343q-3 0 -3 4zM427 1275q0 -3 42 -19v115h-42v-96zM477 946h204q3 0 3 3v64q0 3 -3 3h-204v-70zM487 1247q42 -17 44 -17v141h-44v-124zM548 1224q6 -6 46 -22v169h-46v-147z M612 1194q2 0 43 -18v195h-43v-177zM674 1170q1 -3 51 -24v225h-51v-201zM743 1140q2 -4 45 -20v243q0 3 -7 8h-38v-231zM807 1111l42 -17v211l-42 40v-234zM833 1371q7 -9 207 -205v205h-207zM867 1084q5 0 42 -17v177q0 2 -42 42v-202zM928 1061q0 -3 45 -20v139 q0 2 -45 45v-164zM992 1032l43 -18v101q0 9 -43 47v-130z" />
<glyph unicode="Q" horiz-adv-x="1172" d="M50 -11v1451q0 3 3 3h1066q3 0 3 -3v-1451q0 -3 -3 -3h-314v-96q0 -3 -3 -3h-424q-4 0 -4 3v96h-321q-3 0 -3 3zM121 56h321q3 0 3 -3v-93q0 -3 3 -3h284q3 0 3 3v93q0 3 3 3h166q145 145 146 149v327l-288 90v-274q0 -4 -4 -4h-346q-3 0 -3 4v418l-19 -2h-3 q-32 0 -97 -1q0 -2 -169 -202v-505zM121 619q15 15 288 340v120q0 4 3 4h346q4 -1 4 -4v-205q274 308 288 326v173h-929v-754zM323 799q18 1 26 1h11q0 3 -20 21q-12 -14 -17 -22zM352 835l37 -35h12l8 2v36l-27 28q0 2 13 13l14 -13v35q-3 -2 -57 -66zM481 416h210v596 h-210v-596zM762 661q0 -3 3 -3h3q0 2 -6 6v-3zM762 692q45 -50 56 -50q89 -28 92 -28q-74 77 -148 149v-71zM762 791q188 -191 192 -191l11 -3v1q-14 72 -19 72l-169 168q0 -2 -15 -20v-27zM791 852q66 -68 151 -150v1q-16 80 -21 80l-101 101q-1 0 -29 -32zM832 898l85 -83 v1q-13 60 -18 75l-39 38q-5 -3 -28 -31zM873 943l19 -17v3q0 2 -7 28q-9 -6 -12 -14zM915 992q88 -398 93 -409q5 0 42 -13v574zM956 56h94v96z" />
<glyph unicode="R" d="M50 3v1436q0 4 3 4h951q3 -1 3 -4v-491h101q3 -1 3 -3v-942q0 -3 -3 -3h-420q-4 0 -4 3v518h-204q-3 0 -3 -3v-515q0 -3 -4 -3h-420q-3 0 -3 3zM121 70h286v518q0 3 3 3h343q3 0 3 -3v-518h25q28 35 260 333v473h-101q-3 0 -3 4v69q-23 -7 -628 -305l-188 -431v-143z M121 306h2l136 314l-138 -66v-248zM131 599h1q42 20 44 20v754h-45v-774zM194 630h2q42 18 42 21v719q0 3 -3 3h-41v-743zM273 667q43 22 45 22v684h-45v-706zM337 698q39 20 42 20v655h-42v-675zM397 727q40 21 42 21v128h-29q-3 0 -3 4v203q0 3 3 3h29v287h-42v-646z M458 757q42 22 45 22v97h-45v-119zM458 1086h45v287h-45v-287zM477 948h104v68h-104v-68zM522 788q42 20 43 23v65h-43v-88zM522 1086h43v284q0 3 -3 3h-40v-287zM582 819q8 0 53 26v31h-53v-57zM582 1086h53v284q0 3 -3 3h-47q-3 -1 -3 -3v-284zM652 852q46 22 46 24v494 q0 3 -3 3h-43v-521zM715 884l44 19v456q-2 14 -14 14h-26q-4 -1 -4 -3v-486zM777 914h2q36 18 40 18v368q-40 43 -42 43v-429zM801 1373q0 -3 136 -143v140q0 3 -3 3h-133zM827 70h132q-40 79 -54 101zM838 943h2q38 20 43 20v270q-37 41 -45 47v-337zM902 974h1 q34 16 34 19v183q0 4 -35 37v-239zM931 203q2 -11 70 -133h40v273q-2 0 -110 -140z" />
<glyph unicode="S" horiz-adv-x="1156" d="M50 3v419q0 3 3 3h629v94h-629q-3 0 -3 3v911q0 3 3 3h1050q3 0 3 -3v-419q0 -3 -3 -3h-628v-68h628q3 0 3 -3v-937q0 -3 -3 -3h-1050q-3 0 -3 3zM121 69h51v166h-2q-45 -28 -49 -30v-136zM121 247h2q169 105 169 107h-171v-107zM121 602q0 -2 14 -14h59q0 2 -73 73v-59z M121 687q0 -2 99 -99h63q2 0 5 5l-167 165v-71zM121 786q92 -94 184 -184q37 24 37 26q-7 7 -221 220v-62zM121 875q149 -150 238 -237q31 21 34 21v2q-125 127 -272 272v-58zM121 960q122 -123 289 -288q32 21 35 21v2q-152 154 -324 324v-59zM121 1047q194 -196 341 -341 q22 15 37 23v1q-167 170 -378 379v-62zM121 1174h2q257 185 264 193h-266v-193zM126 1130l390 -389q34 22 34 23q-49 51 -108 108h-34q-3 0 -3 3v34q-136 139 -245 246h-2q-32 -22 -32 -25zM175 1166l230 -229v59q-95 97 -196 196q-33 -22 -34 -26zM207 69h830v252l-346 491 q-291 -189 -341 -224h399q4 0 4 -3v-228q0 -3 -4 -3h-387q-153 -94 -155 -98v-187zM224 1203l181 -179v54l3 4q-74 76 -146 147h-2q-33 -25 -36 -25v-1zM277 1240l161 -159h57q-93 94 -186 185zM326 1277q96 -97 196 -196h58v1q-216 219 -221 220q-20 -17 -33 -23v-2z M393 1323q418 -215 477 -242h167v286h-584q-7 0 -60 -42v-2zM422 1268q96 -98 187 -187h60v1q-123 127 -130 127zM470 872q25 -26 97 -97l36 22v1q-1 4 -74 74h-59zM556 872q1 -3 64 -63q32 22 37 23v2q0 2 -39 38h-62zM606 1174q0 -3 93 -93h57q-33 38 -64 49 q-84 44 -86 44zM646 872q0 -2 28 -27q32 20 34 23q0 2 -5 4h-57zM722 831q298 -425 315 -447v488h-252q-7 0 -63 -40v-1zM780 1084q1 -3 3 -3h2q0 3 -3 3h-2z" />
<glyph unicode="T" d="M50 1019v420q0 4 3 4h1055q3 -1 3 -4v-420q0 -3 -3 -3h-313v-1013q0 -3 -4 -3h-420q-3 0 -3 3v1013h-315q-3 0 -3 3zM120 1086h125q309 222 317 231q13 7 42 28q35 26 35 28h-516q-3 -1 -3 -3v-284zM307 1086h128q3 -1 3 -3v-356q276 157 285 165v191q1 3 3 3h315v77 q-440 111 -464 118q-258 -187 -270 -194v-1zM438 70h17v347h-2l-15 -42v-305zM438 475h1l110 274q-109 -61 -111 -65v-209zM473 70h52v519h-2q-50 -123 -50 -128v-391zM543 70h45v676h-1l-44 -112v-564zM607 88q43 44 43 47v672h-1q-39 -23 -42 -24v-695zM616 1308 q311 -79 425 -107v172h-338q-79 -56 -87 -65zM639 70h84v87q-11 -10 -84 -87zM667 154h2q42 42 42 43v645q-44 -24 -44 -26v-662z" />
<glyph unicode="U" d="M50 3v1436q0 3 3 3h421q3 0 3 -3v-1013h207v1013q0 3 3 3h421q3 0 3 -3v-1436q0 -3 -3 -3h-1055q-3 0 -3 3zM121 71h425q332 298 336 304q-16 12 -126 113h-1v-129q0 -3 -3 -3h-343q-3 0 -3 3v251q-2 9 -116 206q-80 141 -80 143h-2q-87 -173 -87 -177v-711zM121 867h2 l113 225l-115 113v-338zM121 1231q57 -59 123 -122q21 35 21 43l-144 143v-64zM121 1321q47 -49 154 -152h1q0 3 19 39l-164 163h-10v-50zM158 1371q68 -70 146 -146q19 36 19 40q-59 61 -106 106h-59zM228 997l177 -311h1v662h-1q-50 -102 -177 -351zM244 1371 q35 -38 88 -89h1l21 44l-47 45h-63zM335 1371q0 -2 28 -28h1l13 28h-42zM600 71h440v158q0 2 -130 120h-2q-306 -274 -308 -278zM755 537h1v614h-1v-614zM755 1197q195 169 198 174h-198v-174zM775 520q32 -32 51 -46v737q-48 -40 -51 -45v-646zM845 457q0 -2 43 -40h2v819 q-3 5 -19 16l-26 -25v-770zM899 1276q0 -1 141 -113v208h-30zM908 400q8 -10 42 -39v827q0 2 -42 34v-822zM969 344q39 -37 41 -37v833q0 1 -41 34v-830zM1029 290q0 -3 11 -11v839q-3 0 -10 7h-1v-835z" />
<glyph unicode="V" d="M50 1439l3 1h421q3 0 3 -3v-66q0 -9 112 -762h2q94 741 94 760v68q1 3 3 3h420l3 -1q-177 -1398 -183 -1439h-661q-4 0 -22 130q-195 1301 -195 1309zM131 1369q0 -17 27 -38q113 -115 199 -199q0 4 14 47l-194 192h-43zM138 1321q10 -69 13 -69l186 -185q3 8 13 47 l-212 209v-2zM154 1219q9 -74 14 -74l148 -148l14 50l-176 175v-3zM169 1115q9 -71 14 -71l113 -112q5 13 14 45l-141 140v-2zM183 1016q11 -72 16 -74l77 -76h2l12 46l-105 104h-2zM199 915q10 -79 15 -79l42 -40q14 44 14 50zM205 1371q86 -88 172 -172q0 4 14 49 l-124 123h-62zM214 810q11 -74 16 -74l6 -5h1l13 45zM242 624l84 -554h182q0 3 66 127q-295 541 -295 543h-3q0 -6 -34 -116zM292 788q10 -17 392 -718h181q4 0 17 124q11 77 99 777l-144 214q-107 -46 -109 -48l-99 -781l-3 -1h-66q-6 0 -21 121l-114 758h-2 q0 -3 -131 -446zM295 1371q57 -60 102 -102l14 46l-59 56h-57zM381 1369q0 -2 28 -28l-1 16v11q0 3 -3 3h-24v-2zM549 70h93v1l-47 87q-8 -9 -46 -88zM735 1180h1q282 123 287 127q7 50 7 64h-275v-13q0 -10 -20 -178zM871 1200q11 -19 14 -20v27q-11 -7 -14 -7zM903 1151 q41 -64 44 -64v146h-2q-38 -17 -42 -20v-62zM964 1059q22 -31 22 -34q4 0 24 192v44h-1q-39 -17 -45 -22v-180z" />
<glyph unicode="W" horiz-adv-x="1592" d="M50 3v1441q0 3 3 3h422q3 -1 3 -3v-1018h104v1018q0 3 3 3h422q3 -1 3 -3v-1018h101q3 0 3 3v1015q0 3 3 3h422q3 -1 3 -3v-1441q0 -3 -3 -3h-1486q-3 0 -3 3zM122 87q513 196 569 219q216 641 249 742v304q0 8 -19 23h-269v-1016q0 -3 -3 -3h-238q-3 0 -3 3v744 q-220 252 -235 272h-51v-1288zM181 70h427q4 0 66 190h-2q-476 -184 -491 -188v-2zM220 1375q174 -202 188 -216v216h-188zM649 70h692q0 3 -275 286h-123q-3 0 -3 3v568h-2q-289 -855 -289 -857zM1117 356q48 -50 159 -165h194v945h-1q-280 -227 -285 -234v-543q0 -3 -3 -3 h-64zM1184 950q86 71 92 74v3l-92 98v-175zM1184 1179q7 -10 121 -131q17 15 17 16q-60 63 -138 138v-23zM1184 1230q77 -78 154 -154q3 1 33 27l-187 185v-58zM1184 1316q104 -106 202 -202q29 26 33 26q-103 105 -235 235v-59zM1212 1375q91 -93 222 -222q11 12 35 28 q-100 102 -195 194h-62zM1302 1375q84 -85 168 -168v58q-31 33 -110 110h-58zM1329 137q37 -41 43 -45v64h-43v-19zM1388 1375q0 -2 82 -82v71q0 3 -11 11h-71zM1391 70h51v86h-51v-86zM1459 70h11v86h-11v-86z" />
<glyph unicode="X" d="M50 3v341q0 8 98 142q0 1 164 235v2q-2 0 -262 371v345q0 4 3 4h420q4 -1 4 -4v-190q102 -146 104 -146h1q102 147 102 149v187q1 4 4 4h420q3 -1 3 -4v-341q-1 -8 -64 -94l-198 -283l262 -374v-344q0 -3 -3 -3h-420q-4 0 -4 3v189q-100 144 -105 148l-102 -148v-189 q0 -3 -4 -3h-420q-3 0 -3 3zM120 70h287v143q0 6 65 96v3q0 6 -120 122h-156q0 -2 -76 -110v-254zM120 1117l277 -394v-3l-86 -124l183 -255l62 86h48q8 -7 80 -112h2q214 208 214 209q-130 185 -136 197v2l79 113l-151 299q-2 0 -111 -155q-3 1 -174 245v53q-1 3 -186 75 q-49 20 -56 20h-45v-256zM224 470h132v2q-63 86 -66 91h-1q-65 -87 -65 -93zM270 1371l137 -53v52q0 3 -3 3h-134v-2zM380 434q0 -2 8 -7v1l-6 6h-2zM706 284l48 -68v-146h287v250q0 7 -71 105q-47 66 -47 68h-3zM715 1171q0 -5 67 -136h2q255 263 257 263v72q0 3 -3 3h-284 v-143q0 -7 -39 -59zM805 990q42 -86 62 -120l25 36l-87 85v-1zM813 1011q39 -41 90 -90l25 36l-87 85l-28 -29v-2zM855 1055l84 -82h1q0 3 22 32v2q-2 4 -79 79q-28 -28 -28 -31zM897 1098l77 -76q0 1 25 36v1q0 3 -71 72q-31 -29 -31 -33zM942 1145q0 -2 70 -70l23 34v2 q-1 3 -65 65q-24 -24 -28 -31zM984 1188l57 -56v115h-1q-48 -48 -56 -59z" />
<glyph unicode="Y" horiz-adv-x="1131" d="M50 3v410q0 3 3 3h611v136h-611q-3 0 -3 3v889q0 3 3 3h410q3 0 3 -3v-476h198v476q1 3 3 3h411q3 0 3 -3v-1441q0 -3 -3 -3h-1025q-3 0 -3 3zM120 72h739q0 3 152 209q-2 121 -2 190v906h-16q-240 -181 -257 -197v-279q0 -3 -3 -3h-335q-3 0 -3 3v326h-2l-131 -231 l304 -372h167q3 -1 3 -3v-272q0 -3 -3 -3h-356q-8 0 -145 -67q-96 -46 -112 -53v-154zM120 265q149 71 165 81h-165v-81zM120 624h398q-254 316 -276 340l-122 -217v-123zM120 823h2q34 61 39 74v480h-41v-554zM178 925q53 87 53 93v359h-53v-452zM248 1048q47 75 47 82v247 h-47v-329zM312 1160q4 0 44 75v142h-44v-217zM374 1268h2q19 32 19 37v72h-21v-109zM736 1227q177 135 197 148v2h-197v-150zM903 72h39v51h-3q0 -3 -36 -51zM959 72h47v140q-47 -59 -47 -67v-73z" />
<glyph unicode="Z" horiz-adv-x="1164" d="M50 3v945q0 3 3 3h633v68h-633q-3 0 -3 3v422q0 3 3 3h1058q3 0 3 -3v-918q0 -3 -3 -3h-633v-95h633q3 -1 3 -3v-422q0 -3 -3 -3h-1058q-3 0 -3 3zM120 70h752q-13 16 -281 286h-180q-3 0 -3 3v231q0 3 3 3h261q-1 2 -163 138q-387 -151 -389 -151v-510zM120 619 q4 0 924 360v87q0 6 -51 70q-120 152 -123 159q-381 -199 -389 -206h272q3 0 3 -3v-204q0 -3 -3 -3h-633v-260zM120 1089h277q21 9 394 204q56 29 56 31l-44 53h-683v-288zM548 747q10 -12 22 -19l40 42h-1q-60 -23 -61 -23zM584 714q33 -26 35 -26l139 140h-3 q-106 -41 -108 -47l-63 -65v-2zM632 674l34 -27l235 237h-1q-100 -37 -105 -45zM643 356q139 -143 141 -143l260 -51v194h-401zM680 635q27 -24 39 -33l325 327v11h-1q-102 -38 -105 -45zM736 593h62q133 131 246 246v62q-135 -133 -308 -308zM826 593h60q81 79 158 159v59 q-81 -80 -218 -218zM828 168q53 -56 96 -98h120v53q0 4 -118 25q-3 1 -98 20zM859 1366q27 -37 45 -57v68h-45v-11zM914 593h57q2 0 73 73v58q-63 -62 -130 -131zM923 1284l42 -53v146h-42v-93zM984 1211q0 -6 40 -58h2v224h-42v-166zM999 593h45v45q-2 0 -45 -45z" />
<glyph unicode="a" d="M50 3v1436q0 4 3 4h1055q3 -1 3 -4v-1436q0 -3 -3 -3h-420q-4 0 -4 3v518h-207v-518q0 -3 -4 -3h-420q-3 0 -3 3zM120 292q7 -8 271 -221h14v518q1 4 3 4h343q3 -1 3 -4v-518h287v821q-2 4 -380 271q-181 127 -192 137l-349 -160v-848zM120 1179q416 192 420 192v2h-420 v-194zM134 71h43v126q-15 15 -43 36v-162zM196 71h42v79q-5 3 -42 33v-112zM256 71h45v25q-16 17 -45 37v-62zM320 71h12q0 3 -12 11v-11zM405 881v203q1 3 3 3h343q3 0 3 -3v-203q0 -3 -3 -3h-343q-3 0 -3 3zM477 948h207v70h-207v-70zM506 1315q35 -23 37 -23l75 76h-2 q-98 -45 -110 -53zM557 1280l34 -24q49 48 117 117h-58q-2 -1 -93 -93zM607 1244q35 -23 37 -23l151 152h-59q-77 -75 -129 -129zM658 1210q0 -1 36 -26h1q97 94 190 189h-63q-39 -36 -164 -163zM711 1171l34 -23q132 129 225 225h-58q-105 -104 -201 -202zM760 1135 q5 -1 44 -29q237 238 237 240v27h-43q-103 -101 -238 -238zM818 1095l39 -26q184 185 184 187v61h-1q-93 -90 -222 -222zM871 1058q1 0 35 -25l135 137v57q-167 -163 -170 -169zM922 1022l35 -25q84 85 84 87v58q-65 -64 -119 -120zM971 987l39 -27q31 30 31 37v58h-1 q-2 0 -69 -68zM1024 949q16 -11 17 -11v27h-1q-2 0 -16 -16z" />
<glyph unicode="b" horiz-adv-x="1157" d="M50 3v1429q0 4 3 4h946q3 -1 3 -4v-486q1 -3 3 -3h99q3 0 3 -3v-937q0 -3 -3 -3h-1051q-3 0 -3 3zM121 71h117q6 0 261 63v2q0 3 -378 401v-466zM121 591q30 -33 392 -417q26 -26 26 -29l497 125v604h-100q-3 0 -3 3v376q-368 113 -375 113h-437v-775zM394 71h74 q0 2 -15 15q-54 -13 -59 -13v-2zM405 358v229q1 3 3 3h341q3 -1 3 -3v-229q0 -3 -3 -3h-341q-3 0 -3 3zM405 877v202q1 3 3 3h238q3 0 3 -3v-202q0 -3 -3 -3h-238q-3 0 -3 3zM474 93q1 -3 22 -22h63q0 2 -34 34q-47 -12 -51 -12zM476 424h204q3 0 3 4v91h-207v-95zM476 943 h102v70h-102v-70zM547 110q0 -3 39 -39h58q0 2 -51 51q-41 -11 -46 -11v-1zM615 128q0 -2 57 -57h59q0 2 -68 68q-45 -11 -48 -11zM684 144q0 -3 73 -73h63l-85 86q-48 -12 -51 -12v-1zM688 1365q3 0 35 -10v11h-35v-1zM740 1349l46 -14v31h-46v-17zM755 161q65 -65 93 -90 h57l-102 103q-48 -10 -48 -13zM803 1332q0 -3 43 -15v49h-43v-34zM825 179q49 -51 108 -108h71l-124 123q-47 -13 -55 -13v-2zM865 1311q15 -4 42 -13v68h-42v-55zM902 198l128 -127h6v57q-80 83 -85 83q-49 -10 -49 -13zM925 1292l8 -2v76h-8v-74zM973 218q1 -3 63 -64v59 q-12 15 -17 15z" />
<glyph unicode="c" horiz-adv-x="1156" d="M50 3v1430q0 3 3 3h1050q3 -1 3 -3v-417q0 -3 -3 -3h-628v-588h131q6 0 6 1l11 -1h480q3 -1 3 -3v-419q0 -3 -3 -3h-1050q-3 0 -3 3zM119 71h10v648q-10 -3 -10 -6v-642zM119 755q283 134 286 134v190q1 3 3 3h420v2q-705 201 -709 201v-530zM119 1325q0 -3 10 -5v46h-10 v-41zM147 71h45v678h-1q-44 -20 -44 -22v-656zM147 1314q6 0 45 -12v64h-45v-52zM211 71h43v707h-2q-38 -18 -41 -18v-689zM211 1298q0 -3 43 -13v81h-43v-68zM271 71h51v740h-2q-49 -23 -49 -25v-715zM271 1281q0 -3 51 -15v34q0 8 -45 66h-6v-85zM322 1366 q83 -120 91 -128q549 -156 554 -156h70v284h-715zM340 71q47 54 47 63v707h-2q-45 -20 -45 -23v-747zM340 1260q10 -3 14 -3q-12 18 -12 20h-2v-17zM388 71h649v45q-2 3 -121 40q-371 117 -375 117l-153 -200v-2zM404 154h3q0 3 40 54v147h-39q-3 0 -3 3v493h-1v-697z M465 235q42 49 42 57v63h-42v-120zM526 313q2 1 32 42h-32v-42zM566 306q5 -5 128 -42q323 -103 343 -108v199h-433q-2 0 -38 -49z" />
<glyph unicode="d" d="M50 3v420q0 4 3 4h101v591h-101q-3 0 -3 3v418q0 4 3 4h1055q3 -1 3 -4v-1436q0 -3 -3 -3h-1055q-3 0 -3 3zM120 71h606v2q-29 18 -310 211v1q-293 -82 -296 -82v-132zM120 240q254 69 254 73q-147 101 -150 101v-54q0 -3 -3 -3h-101v-117zM120 1087h101q3 0 3 -3v-623 q80 -59 414 -284q8 0 402 -85v916q-342 263 -349 266q-504 97 -528 99h-43v-286zM368 1371q31 -4 261 -49q0 1 -67 51h-194v-2zM511 360v724q0 3 3 3h237q3 0 3 -3v-724q0 -3 -3 -3h-237q-3 0 -3 3zM581 427h103v591h-103v-591zM622 1373q0 -2 35 -27q1 0 26 27h-61z M672 1334q32 -25 34 -25l62 64h-57q-2 0 -39 -39zM715 124q1 -2 41 -29h1v21zM720 1297l40 -30h2q60 59 105 106h-71q-2 0 -76 -76zM776 82q0 -2 14 -11h29v31l-43 10v-30zM776 1255l37 -28l144 146h-63q-54 -52 -118 -118zM827 1216l33 -25h1q92 90 179 179v3h-55 q-81 -78 -158 -157zM836 71h47v16q0 4 -47 11v-27zM877 1179q0 -1 34 -26l129 130v59q-99 -97 -163 -163zM900 71h43v5l-43 9v-14zM925 1142l37 -28l78 79v63q-53 -50 -115 -114zM976 1101q3 0 34 -24l30 31v58q-3 -1 -64 -63v-2zM1026 1066q9 -10 14 -11v25q-2 0 -14 -14z " />
<glyph unicode="e" d="M50 3v1434q0 3 3 3h1055q3 0 3 -3v-419q0 -3 -3 -3h-631v-69h631q3 0 3 -3v-419q0 -4 -3 -4h-631v-94h631q3 -1 3 -3v-420q0 -3 -3 -3h-1055q-3 0 -3 3zM121 70h51v46q-2 5 -49 42h-2v-88zM121 206q2 -3 90 -73l830 174v48h-632q-3 0 -3 3v229q1 3 3 3h168q5 0 260 157 q72 42 82 51q-16 16 -84 77h-426q-3 0 -3 3v68q-16 -4 -285 -66v-674zM121 917q116 25 129 31l111 423h-240v-454zM189 70h42q-39 32 -40 32h-2v-32zM253 101q31 -31 40 -31h3v45l-43 -10v-4zM289 956h1q59 11 59 23q2 0 57 57v45q1 3 3 3h45l287 285v2h-70 q-372 -369 -372 -374q-4 -22 -10 -41zM312 1039q137 135 331 332h-54q-9 0 -59 -54q-198 -196 -198 -200q-20 -71 -20 -78zM315 70h42v57q-42 -8 -42 -11v-46zM343 1157q99 96 213 212v2h-57q-9 0 -48 -44q-88 -84 -88 -91q-20 -76 -20 -79zM374 976h1l31 6v26q-2 0 -32 -32 zM375 70h45v69h-1l-44 -7v-62zM375 1279q41 39 92 92h-58q-15 -8 -21 -39zM439 70h43v83q-1 0 -43 -9v-74zM484 1084h60q24 20 287 285v2h-58q-8 0 -45 -40q-132 -131 -244 -245v-2zM516 70h47v100q-47 -8 -47 -12v-88zM574 1084h57q141 139 286 287h-57q-98 -95 -286 -285 v-2zM581 70h42v113q-42 -8 -42 -11v-102zM642 70h42v125l-42 -8v-117zM649 590h392v90q0 8 -40 42q-45 43 -54 49q-266 -162 -298 -179v-2zM659 1084h57q4 0 253 251q0 2 -30 30q-129 -127 -280 -281zM702 70h45v139q-40 -9 -45 -9v-130zM745 1084h58q9 0 51 47 q95 93 159 159l-31 31q-12 -9 -237 -235v-2zM766 70h43v151q-43 -7 -43 -10v-141zM826 70h53v165h-2q-51 -8 -51 -12v-153zM835 1084h58q67 66 148 149v28q0 2 -15 15q0 -2 -191 -190v-2zM890 875q25 -26 150 -139h1v139h-151zM896 70h46v179l-46 -9v-170zM920 1084h118 q3 0 3 3v116h-1q-66 -63 -120 -119zM959 70h44v192q-44 -7 -44 -11v-181zM986 1369q0 -2 54 -54h1v53q0 3 -3 3h-52v-2zM1021 70h20v200h-1q-3 0 -19 -4v-196z" />
<glyph unicode="f" d="M50 3v1436q0 4 3 4h1055q3 -1 3 -4v-420q0 -3 -3 -3h-631v-68h631q3 -1 3 -3v-421q0 -3 -3 -3h-631v-518q0 -3 -4 -3h-420q-3 0 -3 3zM120 73q0 -3 3 -3h9v132h-1q-11 -8 -11 -10v-119zM120 239h1q275 190 286 197v152q0 3 3 3h291q10 8 55 67l-298 220h-48q-3 0 -3 3 v203q0 3 3 3h290q-240 238 -245 239q-318 -156 -335 -166v-921zM120 1202h1q305 151 346 169v2h-347v-171zM151 70h51v180h-2q-47 -32 -49 -36v-144zM221 70h45v225q-41 -29 -45 -30v-195zM284 70h42v267q-30 -20 -42 -30v-237zM345 70h40q3 0 3 3v305h-1q-35 -21 -42 -29 v-279zM405 71h2v321h-2v-321zM492 1343q16 -17 261 -256h62l-278 280q-42 -22 -45 -22v-2zM520 878q15 -13 259 -192l154 190v2h-413zM557 1373q125 -128 286 -286h62q-126 128 -286 286h-62zM647 1373q125 -128 286 -286h59q-126 128 -286 286h-59zM733 1373 q274 -274 274 -275q-9 -10 -9 -11h43v44l-3 -2h-1l-246 244h-58zM750 591h291v287h-56q-9 0 -34 -37q-11 -12 -201 -250zM819 1373q91 -93 222 -222v62q-93 95 -160 160h-62zM909 1373q68 -70 132 -132v59q0 2 -73 73h-59zM996 1373q0 -2 45 -45v45h-45z" />
<glyph unicode="g" d="M50 3v1436q0 4 3 4h1055q3 -1 3 -4v-418q0 -3 -3 -3h-631v-591h207v426q1 3 4 3h420q3 0 3 -3v-850q0 -3 -3 -3h-1055q-3 0 -3 3zM120 71h56q4 4 214 480q17 33 17 42v491q0 3 3 3h631v78l-290 160l-631 -169v-1085zM120 1193h1q3 0 3 3l-3 2h-1v-5zM120 1227 q23 -26 28 -26l48 12q0 2 -76 76v-62zM120 1317q95 -98 99 -98q45 12 45 14l-129 127v2l10 11h-25v-56zM149 1373q133 -135 137 -135l46 11q-64 66 -124 124h-59zM227 71h43v120h-1q-42 -95 -42 -101v-19zM236 1373l116 -118q48 12 50 15l-104 103h-62zM289 71h42v134 q0 8 -30 57q-9 -19 -12 -31v-160zM321 304l121 -233h483q35 31 116 114v601h-56q-174 -180 -231 -242v-184q0 -3 -3 -3h-341q-3 0 -3 3v138h-2q-84 -191 -84 -194zM326 1373q95 -98 99 -98l45 11v1q-19 22 -85 86h-59zM349 71h45v13q0 3 -43 88h-2v-101zM411 1373l80 -81 q57 14 57 17l-65 64h-72zM511 1373q0 -2 59 -59q2 0 49 12q0 2 -46 47h-62zM601 1373q1 -4 40 -41q1 0 47 13q0 2 -28 28h-59zM686 1373q19 -22 23 -22l45 11v1q0 3 -9 10h-59zM754 599q38 36 180 187h-180v-187zM773 1373l3 -5q7 3 14 3v2h-17zM802 1337l239 -132v168h-104 q-14 -2 -135 -34v-2zM979 71h62v61q-13 -10 -62 -61z" />
<glyph unicode="h" horiz-adv-x="1156" d="M50 3v1430q0 3 3 3h419q3 0 3 -3v-490h203q4 0 4 4v486q0 3 3 3h418q3 0 3 -3v-1430q0 -3 -3 -3h-418q-3 0 -3 3v516h-207v-516q0 -3 -3 -3h-419q-3 0 -3 3zM119 71h285v516q0 3 3 3h341q3 -1 3 -3v-291q5 4 284 311v705l-284 -60v-375q0 -3 -3 -3h-247 q-14 -17 -141 -229q-3 -3 -241 -392v-182zM119 323h2q0 2 193 316q0 7 -157 405q-3 0 -38 -28v-693zM119 1062q31 21 285 215v90h-285v-305zM200 1036q0 -5 41 -111h2v184h-2q-37 -27 -41 -33v-40zM260 883q0 -4 42 -113h1v385q-27 -18 -43 -34v-238zM322 726q0 -5 15 -45h3 q27 44 27 48v474q-18 -12 -45 -34v-443zM385 757h2q40 67 40 71v46h-20q-3 0 -3 3v354q-5 -1 -19 -14v-460zM751 71h284v119q0 6 -119 194q-12 22 -12 24h-2q-145 -158 -151 -167v-170zM751 1289l284 59v19h-284v-78zM929 437q0 -7 106 -175v291q-2 -1 -106 -116z" />
<glyph unicode="i" d="M50 3v420q0 4 3 4h313v591h-313q-3 0 -3 3v418q0 4 3 4h1055q3 -1 3 -4v-418q0 -3 -3 -3h-313v-591h313q3 -1 3 -4v-420q0 -3 -3 -3h-1055q-3 0 -3 3zM120 1087h315q3 0 3 -3v-329q9 -7 285 -152v422q0 3 -153 52q-431 139 -450 144v-134zM120 1264q0 -8 70 -26 q0 -2 23 -8q0 2 -93 93v-59zM120 1351q134 -136 138 -136l88 -28q-93 95 -186 186h-40v-22zM123 71h42v286h-42v-286zM183 71h44v222q0 7 -28 31q0 3 -16 14v-267zM188 1373q197 -200 202 -200q68 -24 83 -27q-124 127 -226 227h-59zM218 357l299 -286h337q7 0 46 39 q77 71 95 85l-78 162h-191q-3 0 -3 3v203q-4 1 -285 151v-354q0 -3 -3 -3h-217zM244 71h12q34 75 34 81v84q-28 31 -46 45v-210zM275 1373q239 -242 243 -242l45 -14q0 1 19 18q-100 103 -237 238h-70zM295 71h169q-105 102 -118 112zM307 186h2q9 20 9 23t-11 11v-34z M373 1373q84 -86 223 -224q4 0 33 31l-194 193h-62zM463 1373q73 -75 180 -180q31 28 31 29l-152 151h-59zM549 1373l137 -138q4 0 31 29l-110 109h-58zM602 1104q88 -29 121 -38v18q1 3 3 3h315v286h-155q-35 -32 -284 -269zM635 1373q23 -26 96 -96q32 28 33 31l-67 65 h-62zM725 1373q1 -3 52 -53l32 30l-25 23h-59zM812 1373q0 -2 10 -11q0 1 10 11h-20zM912 71h129v118h-1q-126 -114 -128 -118zM957 355l64 -133q9 5 20 18v117h-84v-2z" />
<glyph unicode="j" horiz-adv-x="1156" d="M50 3v846q0 3 3 3h419q3 0 3 -3v-424h207v588h-629q-3 0 -3 3v417q0 3 3 3h1050q3 0 3 -3v-1430q0 -3 -3 -3h-1050q-3 0 -3 3zM119 71h722q-17 17 -332 284h-101q-3 0 -3 3v176q-9 9 -117 84q-6 0 -169 -88v-459zM119 571l286 150v62h-286v-212zM119 1082h394 q94 71 99 73q0 3 -449 212h-44v-285zM251 1365q391 -184 395 -184q216 161 247 186h-642v-2zM323 636q70 -50 82 -55v98h-1q-62 -30 -81 -43zM566 355q0 -2 31 -28h1v28h-32zM573 1082h25v17h-1q-19 -13 -24 -15v-2zM615 313q8 -9 43 -38v80h-43v-42zM615 1082h43v64 q-43 -31 -43 -33v-31zM677 259q31 -27 51 -43v139h-51v-96zM677 1082h51v115h-2q-46 -36 -49 -36v-79zM745 208h1q3 0 45 10v1027q-43 -30 -46 -36v-127q6 0 6 -3v-721q0 -3 -6 -3v-147zM773 178q112 -97 125 -107h139v164q-247 -54 -264 -57zM810 222l41 8v1036 q-33 -1 -41 -6v-1038zM870 235l42 9v1027q-37 -3 -42 -3v-1033zM870 1303h1l166 13v51h-82q-79 -59 -85 -62v-2zM930 249q5 0 45 9v1017l-45 -3v-1023zM993 262h2q42 7 42 11v1007q-7 0 -44 -3v-1015z" />
<glyph unicode="k" d="M50 3v1434q0 3 3 3h421q3 0 3 -3v-491h103v491q0 3 3 3h421q3 0 3 -3v-491h101q3 0 3 -3v-940q0 -3 -3 -3h-420q-3 0 -3 3v517h-208v-517q0 -3 -3 -3h-421q-3 0 -3 3zM121 71h8v493h-2q-2 0 -6 -6v-487zM121 604q230 163 380 273h-92q-3 0 -3 3v280q0 7 -38 50 q-138 160 -140 161h-107v-767zM148 71h44v539q-41 -29 -44 -31v-508zM211 71h43v583h-1q-42 -29 -42 -31v-552zM271 71h53v632h-1q-48 -32 -52 -37v-595zM278 1369q108 -127 128 -148v150h-128v-2zM341 71h47v679h-2q-42 -30 -45 -34v-645zM405 71h1v519l3 2h39v167 q-15 19 -15 22h-4q-24 -16 -24 -20v-690zM460 802q151 -198 163 -210h129q3 -1 3 -3v-402q206 176 286 247v443h-102q-3 0 -3 3v491h-285v-491q0 -3 -3 -3h-81q-7 0 -79 -55l-28 -18v-2zM467 592h41v88q-37 48 -40 54h-1v-142zM527 592h45v1q0 8 -45 62v-63zM755 71h214 l-137 135q-72 -63 -77 -65v-70zM860 229l3 -1q2 0 33 32h-2zM877 214q0 -2 31 -31q57 54 133 133v62q-73 -72 -164 -164zM922 169q0 -2 29 -30q88 90 90 90v59q-65 -63 -119 -119zM964 125l31 -29l46 48v57h-1q-2 0 -76 -76zM1007 82l14 -11h20v45q-2 0 -34 -34z" />
<glyph unicode="l" d="M50 3v1436q0 4 3 4h420q4 -1 4 -4v-493q0 -4 1 -4l-1 -8v-507h631q3 -1 3 -4v-420q0 -3 -3 -3h-1055q-3 0 -3 3zM120 70h11q2 0 45 122q225 635 231 660v166h-2l-285 -112v-836zM120 945q22 9 26 9q0 2 -26 26v-35zM120 1008q42 -45 46 -45l42 16q-36 38 -88 88v-59z M120 1095q49 -51 108 -108q21 9 41 15v2q-66 67 -149 149v-58zM120 1180q79 -80 169 -169h3q3 0 3 3q-29 85 -34 89l-141 139v-62zM120 1270q60 -62 127 -127v2q-33 92 -37 96l-90 88v-59zM120 1357q0 -2 76 -76v2q-29 81 -34 88h-42v-14zM171 70h870v94l-361 191h-270 q-3 0 -3 3v377h-2zM202 1370q8 -19 127 -343q19 6 78 29v315h-205v-1zM759 354l282 -149v150h-282v-1z" />
<glyph unicode="m" horiz-adv-x="1581" d="M50 3v1430q0 3 3 3h1475q3 0 3 -3v-1430q0 -3 -3 -3h-419q-3 0 -3 3v1010h-103v-1010q0 -3 -3 -3h-419q-3 0 -3 3v1010h-103v-1010q0 -3 -3 -3h-419q-3 0 -3 3zM119 71h201q-10 9 -201 117v-117zM119 230l87 -49q9 13 198 241q1 2 1 6v651q1 3 3 3h236q4 0 4 -3v-920 q4 0 285 60v661q-404 361 -455 403q-353 -163 -359 -167v-886zM119 1157q21 7 21 10l-21 19v-29zM119 1214q36 -39 41 -39q27 13 38 17v2q0 2 -77 77h-2v-57zM119 1303q0 -9 45 -49q2 -3 53 -53q37 18 48 22v1q-76 78 -142 143h-4v-64zM150 1367l133 -135q36 16 43 22 l-114 113h-62zM237 164q15 -12 157 -93h11v295q-2 0 -168 -202zM240 1367q102 -105 106 -105q35 17 39 17v1q-21 23 -86 87h-59zM325 1367q2 -5 79 -79q20 10 40 18q0 2 -60 61h-59zM411 1367q1 -3 51 -51l42 18v2q0 2 -31 31h-62zM501 1367l21 -24q31 15 42 19q0 2 -4 5 h-59zM515 1299l418 -369v149q1 3 3 3h237q3 0 3 -3v-776l284 94v736q-11 14 -203 232v2h-597q-134 -59 -145 -68zM648 71h4v51h-4v-51zM671 71h43v65q-10 -2 -43 -9v-56zM731 71h43v77q-43 -6 -43 -11v-66zM793 71h44v91l-44 -9v-82zM856 71h42v103h-2l-40 -7v-96zM916 71 h17v111q-4 0 -17 -3v-108zM1176 71h284v289q-280 -94 -284 -94v-195zM1312 1362q0 -8 44 -54v59h-44v-5zM1375 1286q0 -2 42 -48v129h-42v-81zM1435 1217q0 -1 25 -28v178h-25v-150z" />
<glyph unicode="n" d="M50 3v1434q0 3 3 3h1055q3 0 3 -3v-1434q0 -3 -3 -3h-421q-3 0 -3 3v1013h-205q-3 0 -3 -3v-1010q0 -3 -3 -3h-420q-3 0 -3 3zM121 71h58q212 146 227 158v751q-23 19 -91 58q-61 -103 -194 -322v-645zM121 787q4 0 6 12v356q0 3 -4 5h-2v-373zM121 1202l285 -177v58 q1 3 3 3h343q3 -1 3 -3v-581q168 95 173 101q112 299 112 302v466h-919v-169zM144 824h2q45 77 45 81v210q-1 4 -47 31v-322zM208 931q4 3 43 70v77q-5 6 -43 28v-175zM244 71h162v113q-155 -106 -162 -113zM270 1033h1l14 25l-15 9v-34zM755 76q0 -2 4 -5h59q-1 3 -63 64 v-59zM755 163q39 -41 91 -92h71l-150 149h-1l-11 -2v-55zM755 254l285 45v324h-2q-280 -161 -283 -161v-208zM792 223q79 -81 152 -152h63q-81 83 -161 161q-51 -7 -54 -7v-2zM869 235q162 -164 166 -164h5v53l-120 121q-39 -8 -51 -8v-2zM944 248q23 -26 96 -96v59 q0 2 -45 45zM978 630h1q61 34 61 36v132h-2zM1018 257l22 -20v26q-22 -3 -22 -6z" />
<glyph unicode="o" d="M50 3v1438q0 3 3 3h1055q3 0 3 -3v-1438q0 -3 -3 -3h-1055q-3 0 -3 3zM120 465q253 169 285 194v425q1 3 3 3h343q3 0 3 -3v-724q0 -3 -3 -3h-343q-3 0 -3 3v254q-182 -121 -191 -130q284 -311 298 -330l528 279v496q-5 6 -467 312q-34 23 -37 23l-416 -158v-641z M120 1145l595 226v2h-595v-228zM134 71h43v388h-1q-39 -25 -42 -29v-359zM194 71h44v334q0 1 -42 46h-2v-380zM256 71h45v264q-43 47 -43 50h-2v-314zM320 71h34l8 2v191q0 7 -42 49v-242zM380 84q49 26 52 26v81q-50 56 -52 56v-163zM435 71h605v194q-152 45 -155 45 q-404 -214 -450 -237v-2zM450 121q26 12 30 17q-28 31 -30 31v-48zM477 427h204q3 0 3 3v588h-207v-591zM579 1280q7 -4 110 -73h2l-84 85q-28 -10 -28 -12zM625 1298q148 -150 159 -155q4 -1 173 -115h2l-287 289q-43 -17 -47 -17v-2zM691 1325q152 -155 349 -349v57 q-133 135 -307 307q-31 -12 -42 -15zM753 1348q139 -142 287 -287v71l-235 236zM826 1373q95 -97 214 -214v63q-74 76 -151 151h-63zM916 1373q63 -66 124 -124v59q-1 3 -66 65h-58zM933 334q3 0 107 -32v89h-2q-103 -53 -105 -57zM1002 1373q0 -2 38 -37v37h-38z" />
<glyph unicode="p" d="M50 3v1435q0 3 3 3h1055q3 0 3 -3v-914q0 -3 -3 -3h-631v-518q0 -3 -4 -3h-420q-3 0 -3 3zM120 70h118v1l-118 66v-67zM120 180q7 -6 191 -110h94v299q0 6 -65 101q-110 165 -113 171h-107v-461zM120 676h15l41 39q-24 37 -27 39l-29 -31v-47zM120 751q2 0 20 20 q-19 26 -20 26v-46zM120 864q247 -372 285 -425v149q1 3 3 3h632v380q-4 5 -647 278q-66 29 -193 82q-80 -69 -80 -70v-397zM120 1309q68 59 73 61v1h-73v-62zM163 676h39q-15 24 -17 24zM233 1356q31 -13 34 -13v28h-18q-16 -12 -16 -14v-1zM284 1334q42 -17 44 -17v54h-44 v-37zM363 1300q5 0 45 -19v90h-45v-71zM405 880v203q1 3 3 3h343q3 -1 3 -3v-203q0 -4 -3 -4h-343q-3 0 -3 4zM427 1275q0 -3 42 -19v115h-42v-96zM477 946h204q3 0 3 3v64q0 3 -3 3h-204v-70zM487 1247q42 -17 44 -17v141h-44v-124zM548 1224q6 -6 46 -22v169h-46v-147z M612 1194q2 0 43 -18v195h-43v-177zM674 1170q1 -3 51 -24v225h-51v-201zM743 1140q2 -4 45 -20v243q0 3 -7 8h-38v-231zM807 1111l42 -17v211l-42 40v-234zM833 1371q7 -9 207 -205v205h-207zM867 1084q5 0 42 -17v177q0 2 -42 42v-202zM928 1061q0 -3 45 -20v139 q0 2 -45 45v-164zM992 1032l43 -18v101q0 9 -43 47v-130z" />
<glyph unicode="q" horiz-adv-x="1172" d="M50 -11v1451q0 3 3 3h1066q3 0 3 -3v-1451q0 -3 -3 -3h-314v-96q0 -3 -3 -3h-424q-4 0 -4 3v96h-321q-3 0 -3 3zM121 56h321q3 0 3 -3v-93q0 -3 3 -3h284q3 0 3 3v93q0 3 3 3h166q145 145 146 149v327l-288 90v-274q0 -4 -4 -4h-346q-3 0 -3 4v418l-19 -2h-3 q-32 0 -97 -1q0 -2 -169 -202v-505zM121 619q15 15 288 340v120q0 4 3 4h346q4 -1 4 -4v-205q274 308 288 326v173h-929v-754zM323 799q18 1 26 1h11q0 3 -20 21q-12 -14 -17 -22zM352 835l37 -35h12l8 2v36l-27 28q0 2 13 13l14 -13v35q-3 -2 -57 -66zM481 416h210v596 h-210v-596zM762 661q0 -3 3 -3h3q0 2 -6 6v-3zM762 692q45 -50 56 -50q89 -28 92 -28q-74 77 -148 149v-71zM762 791q188 -191 192 -191l11 -3v1q-14 72 -19 72l-169 168q0 -2 -15 -20v-27zM791 852q66 -68 151 -150v1q-16 80 -21 80l-101 101q-1 0 -29 -32zM832 898l85 -83 v1q-13 60 -18 75l-39 38q-5 -3 -28 -31zM873 943l19 -17v3q0 2 -7 28q-9 -6 -12 -14zM915 992q88 -398 93 -409q5 0 42 -13v574zM956 56h94v96z" />
<glyph unicode="r" d="M50 3v1436q0 4 3 4h951q3 -1 3 -4v-491h101q3 -1 3 -3v-942q0 -3 -3 -3h-420q-4 0 -4 3v518h-204q-3 0 -3 -3v-515q0 -3 -4 -3h-420q-3 0 -3 3zM121 70h286v518q0 3 3 3h343q3 0 3 -3v-518h25q28 35 260 333v473h-101q-3 0 -3 4v69q-23 -7 -628 -305l-188 -431v-143z M121 306h2l136 314l-138 -66v-248zM131 599h1q42 20 44 20v754h-45v-774zM194 630h2q42 18 42 21v719q0 3 -3 3h-41v-743zM273 667q43 22 45 22v684h-45v-706zM337 698q39 20 42 20v655h-42v-675zM397 727q40 21 42 21v128h-29q-3 0 -3 4v203q0 3 3 3h29v287h-42v-646z M458 757q42 22 45 22v97h-45v-119zM458 1086h45v287h-45v-287zM477 948h104v68h-104v-68zM522 788q42 20 43 23v65h-43v-88zM522 1086h43v284q0 3 -3 3h-40v-287zM582 819q8 0 53 26v31h-53v-57zM582 1086h53v284q0 3 -3 3h-47q-3 -1 -3 -3v-284zM652 852q46 22 46 24v494 q0 3 -3 3h-43v-521zM715 884l44 19v456q-2 14 -14 14h-26q-4 -1 -4 -3v-486zM777 914h2q36 18 40 18v368q-40 43 -42 43v-429zM801 1373q0 -3 136 -143v140q0 3 -3 3h-133zM827 70h132q-40 79 -54 101zM838 943h2q38 20 43 20v270q-37 41 -45 47v-337zM902 974h1 q34 16 34 19v183q0 4 -35 37v-239zM931 203q2 -11 70 -133h40v273q-2 0 -110 -140z" />
<glyph unicode="s" horiz-adv-x="1156" d="M50 3v419q0 3 3 3h629v94h-629q-3 0 -3 3v911q0 3 3 3h1050q3 0 3 -3v-419q0 -3 -3 -3h-628v-68h628q3 0 3 -3v-937q0 -3 -3 -3h-1050q-3 0 -3 3zM121 69h51v166h-2q-45 -28 -49 -30v-136zM121 247h2q169 105 169 107h-171v-107zM121 602q0 -2 14 -14h59q0 2 -73 73v-59z M121 687q0 -2 99 -99h63q2 0 5 5l-167 165v-71zM121 786q92 -94 184 -184q37 24 37 26q-7 7 -221 220v-62zM121 875q149 -150 238 -237q31 21 34 21v2q-125 127 -272 272v-58zM121 960q122 -123 289 -288q32 21 35 21v2q-152 154 -324 324v-59zM121 1047q194 -196 341 -341 q22 15 37 23v1q-167 170 -378 379v-62zM121 1174h2q257 185 264 193h-266v-193zM126 1130l390 -389q34 22 34 23q-49 51 -108 108h-34q-3 0 -3 3v34q-136 139 -245 246h-2q-32 -22 -32 -25zM175 1166l230 -229v59q-95 97 -196 196q-33 -22 -34 -26zM207 69h830v252l-346 491 q-291 -189 -341 -224h399q4 0 4 -3v-228q0 -3 -4 -3h-387q-153 -94 -155 -98v-187zM224 1203l181 -179v54l3 4q-74 76 -146 147h-2q-33 -25 -36 -25v-1zM277 1240l161 -159h57q-93 94 -186 185zM326 1277q96 -97 196 -196h58v1q-216 219 -221 220q-20 -17 -33 -23v-2z M393 1323q418 -215 477 -242h167v286h-584q-7 0 -60 -42v-2zM422 1268q96 -98 187 -187h60v1q-123 127 -130 127zM470 872q25 -26 97 -97l36 22v1q-1 4 -74 74h-59zM556 872q1 -3 64 -63q32 22 37 23v2q0 2 -39 38h-62zM606 1174q0 -3 93 -93h57q-33 38 -64 49 q-84 44 -86 44zM646 872q0 -2 28 -27q32 20 34 23q0 2 -5 4h-57zM722 831q298 -425 315 -447v488h-252q-7 0 -63 -40v-1zM780 1084q1 -3 3 -3h2q0 3 -3 3h-2z" />
<glyph unicode="t" d="M50 1019v420q0 4 3 4h1055q3 -1 3 -4v-420q0 -3 -3 -3h-313v-1013q0 -3 -4 -3h-420q-3 0 -3 3v1013h-315q-3 0 -3 3zM120 1086h125q309 222 317 231q13 7 42 28q35 26 35 28h-516q-3 -1 -3 -3v-284zM307 1086h128q3 -1 3 -3v-356q276 157 285 165v191q1 3 3 3h315v77 q-440 111 -464 118q-258 -187 -270 -194v-1zM438 70h17v347h-2l-15 -42v-305zM438 475h1l110 274q-109 -61 -111 -65v-209zM473 70h52v519h-2q-50 -123 -50 -128v-391zM543 70h45v676h-1l-44 -112v-564zM607 88q43 44 43 47v672h-1q-39 -23 -42 -24v-695zM616 1308 q311 -79 425 -107v172h-338q-79 -56 -87 -65zM639 70h84v87q-11 -10 -84 -87zM667 154h2q42 42 42 43v645q-44 -24 -44 -26v-662z" />
<glyph unicode="u" d="M50 3v1436q0 3 3 3h421q3 0 3 -3v-1013h207v1013q0 3 3 3h421q3 0 3 -3v-1436q0 -3 -3 -3h-1055q-3 0 -3 3zM121 71h425q332 298 336 304q-16 12 -126 113h-1v-129q0 -3 -3 -3h-343q-3 0 -3 3v251q-2 9 -116 206q-80 141 -80 143h-2q-87 -173 -87 -177v-711zM121 867h2 l113 225l-115 113v-338zM121 1231q57 -59 123 -122q21 35 21 43l-144 143v-64zM121 1321q47 -49 154 -152h1q0 3 19 39l-164 163h-10v-50zM158 1371q68 -70 146 -146q19 36 19 40q-59 61 -106 106h-59zM228 997l177 -311h1v662h-1q-50 -102 -177 -351zM244 1371 q35 -38 88 -89h1l21 44l-47 45h-63zM335 1371q0 -2 28 -28h1l13 28h-42zM600 71h440v158q0 2 -130 120h-2q-306 -274 -308 -278zM755 537h1v614h-1v-614zM755 1197q195 169 198 174h-198v-174zM775 520q32 -32 51 -46v737q-48 -40 -51 -45v-646zM845 457q0 -2 43 -40h2v819 q-3 5 -19 16l-26 -25v-770zM899 1276q0 -1 141 -113v208h-30zM908 400q8 -10 42 -39v827q0 2 -42 34v-822zM969 344q39 -37 41 -37v833q0 1 -41 34v-830zM1029 290q0 -3 11 -11v839q-3 0 -10 7h-1v-835z" />
<glyph unicode="v" d="M50 1439l3 1h421q3 0 3 -3v-66q0 -9 112 -762h2q94 741 94 760v68q1 3 3 3h420l3 -1q-177 -1398 -183 -1439h-661q-4 0 -22 130q-195 1301 -195 1309zM131 1369q0 -17 27 -38q113 -115 199 -199q0 4 14 47l-194 192h-43zM138 1321q10 -69 13 -69l186 -185q3 8 13 47 l-212 209v-2zM154 1219q9 -74 14 -74l148 -148l14 50l-176 175v-3zM169 1115q9 -71 14 -71l113 -112q5 13 14 45l-141 140v-2zM183 1016q11 -72 16 -74l77 -76h2l12 46l-105 104h-2zM199 915q10 -79 15 -79l42 -40q14 44 14 50zM205 1371q86 -88 172 -172q0 4 14 49 l-124 123h-62zM214 810q11 -74 16 -74l6 -5h1l13 45zM242 624l84 -554h182q0 3 66 127q-295 541 -295 543h-3q0 -6 -34 -116zM292 788q10 -17 392 -718h181q4 0 17 124q11 77 99 777l-144 214q-107 -46 -109 -48l-99 -781l-3 -1h-66q-6 0 -21 121l-114 758h-2 q0 -3 -131 -446zM295 1371q57 -60 102 -102l14 46l-59 56h-57zM381 1369q0 -2 28 -28l-1 16v11q0 3 -3 3h-24v-2zM549 70h93v1l-47 87q-8 -9 -46 -88zM735 1180h1q282 123 287 127q7 50 7 64h-275v-13q0 -10 -20 -178zM871 1200q11 -19 14 -20v27q-11 -7 -14 -7zM903 1151 q41 -64 44 -64v146h-2q-38 -17 -42 -20v-62zM964 1059q22 -31 22 -34q4 0 24 192v44h-1q-39 -17 -45 -22v-180z" />
<glyph unicode="w" horiz-adv-x="1592" d="M50 3v1441q0 3 3 3h422q3 -1 3 -3v-1018h104v1018q0 3 3 3h422q3 -1 3 -3v-1018h101q3 0 3 3v1015q0 3 3 3h422q3 -1 3 -3v-1441q0 -3 -3 -3h-1486q-3 0 -3 3zM122 87q513 196 569 219q216 641 249 742v304q0 8 -19 23h-269v-1016q0 -3 -3 -3h-238q-3 0 -3 3v744 q-220 252 -235 272h-51v-1288zM181 70h427q4 0 66 190h-2q-476 -184 -491 -188v-2zM220 1375q174 -202 188 -216v216h-188zM649 70h692q0 3 -275 286h-123q-3 0 -3 3v568h-2q-289 -855 -289 -857zM1117 356q48 -50 159 -165h194v945h-1q-280 -227 -285 -234v-543q0 -3 -3 -3 h-64zM1184 950q86 71 92 74v3l-92 98v-175zM1184 1179q7 -10 121 -131q17 15 17 16q-60 63 -138 138v-23zM1184 1230q77 -78 154 -154q3 1 33 27l-187 185v-58zM1184 1316q104 -106 202 -202q29 26 33 26q-103 105 -235 235v-59zM1212 1375q91 -93 222 -222q11 12 35 28 q-100 102 -195 194h-62zM1302 1375q84 -85 168 -168v58q-31 33 -110 110h-58zM1329 137q37 -41 43 -45v64h-43v-19zM1388 1375q0 -2 82 -82v71q0 3 -11 11h-71zM1391 70h51v86h-51v-86zM1459 70h11v86h-11v-86z" />
<glyph unicode="x" d="M50 3v341q0 8 98 142q0 1 164 235v2q-2 0 -262 371v345q0 4 3 4h420q4 -1 4 -4v-190q102 -146 104 -146h1q102 147 102 149v187q1 4 4 4h420q3 -1 3 -4v-341q-1 -8 -64 -94l-198 -283l262 -374v-344q0 -3 -3 -3h-420q-4 0 -4 3v189q-100 144 -105 148l-102 -148v-189 q0 -3 -4 -3h-420q-3 0 -3 3zM120 70h287v143q0 6 65 96v3q0 6 -120 122h-156q0 -2 -76 -110v-254zM120 1117l277 -394v-3l-86 -124l183 -255l62 86h48q8 -7 80 -112h2q214 208 214 209q-130 185 -136 197v2l79 113l-151 299q-2 0 -111 -155q-3 1 -174 245v53q-1 3 -186 75 q-49 20 -56 20h-45v-256zM224 470h132v2q-63 86 -66 91h-1q-65 -87 -65 -93zM270 1371l137 -53v52q0 3 -3 3h-134v-2zM380 434q0 -2 8 -7v1l-6 6h-2zM706 284l48 -68v-146h287v250q0 7 -71 105q-47 66 -47 68h-3zM715 1171q0 -5 67 -136h2q255 263 257 263v72q0 3 -3 3h-284 v-143q0 -7 -39 -59zM805 990q42 -86 62 -120l25 36l-87 85v-1zM813 1011q39 -41 90 -90l25 36l-87 85l-28 -29v-2zM855 1055l84 -82h1q0 3 22 32v2q-2 4 -79 79q-28 -28 -28 -31zM897 1098l77 -76q0 1 25 36v1q0 3 -71 72q-31 -29 -31 -33zM942 1145q0 -2 70 -70l23 34v2 q-1 3 -65 65q-24 -24 -28 -31zM984 1188l57 -56v115h-1q-48 -48 -56 -59z" />
<glyph unicode="y" horiz-adv-x="1131" d="M50 3v410q0 3 3 3h611v136h-611q-3 0 -3 3v889q0 3 3 3h410q3 0 3 -3v-476h198v476q1 3 3 3h411q3 0 3 -3v-1441q0 -3 -3 -3h-1025q-3 0 -3 3zM120 72h739q0 3 152 209q-2 121 -2 190v906h-16q-240 -181 -257 -197v-279q0 -3 -3 -3h-335q-3 0 -3 3v326h-2l-131 -231 l304 -372h167q3 -1 3 -3v-272q0 -3 -3 -3h-356q-8 0 -145 -67q-96 -46 -112 -53v-154zM120 265q149 71 165 81h-165v-81zM120 624h398q-254 316 -276 340l-122 -217v-123zM120 823h2q34 61 39 74v480h-41v-554zM178 925q53 87 53 93v359h-53v-452zM248 1048q47 75 47 82v247 h-47v-329zM312 1160q4 0 44 75v142h-44v-217zM374 1268h2q19 32 19 37v72h-21v-109zM736 1227q177 135 197 148v2h-197v-150zM903 72h39v51h-3q0 -3 -36 -51zM959 72h47v140q-47 -59 -47 -67v-73z" />
<glyph unicode="z" horiz-adv-x="1164" d="M50 3v945q0 3 3 3h633v68h-633q-3 0 -3 3v422q0 3 3 3h1058q3 0 3 -3v-918q0 -3 -3 -3h-633v-95h633q3 -1 3 -3v-422q0 -3 -3 -3h-1058q-3 0 -3 3zM120 70h752q-13 16 -281 286h-180q-3 0 -3 3v231q0 3 3 3h261q-1 2 -163 138q-387 -151 -389 -151v-510zM120 619 q4 0 924 360v87q0 6 -51 70q-120 152 -123 159q-381 -199 -389 -206h272q3 0 3 -3v-204q0 -3 -3 -3h-633v-260zM120 1089h277q21 9 394 204q56 29 56 31l-44 53h-683v-288zM548 747q10 -12 22 -19l40 42h-1q-60 -23 -61 -23zM584 714q33 -26 35 -26l139 140h-3 q-106 -41 -108 -47l-63 -65v-2zM632 674l34 -27l235 237h-1q-100 -37 -105 -45zM643 356q139 -143 141 -143l260 -51v194h-401zM680 635q27 -24 39 -33l325 327v11h-1q-102 -38 -105 -45zM736 593h62q133 131 246 246v62q-135 -133 -308 -308zM826 593h60q81 79 158 159v59 q-81 -80 -218 -218zM828 168q53 -56 96 -98h120v53q0 4 -118 25q-3 1 -98 20zM859 1366q27 -37 45 -57v68h-45v-11zM914 593h57q2 0 73 73v58q-63 -62 -130 -131zM923 1284l42 -53v146h-42v-93zM984 1211q0 -6 40 -58h2v224h-42v-166zM999 593h45v45q-2 0 -45 -45z" />
<glyph unicode="&#x2000;" horiz-adv-x="729" />
<glyph unicode="&#x2001;" horiz-adv-x="1459" />
<glyph unicode="&#x2002;" horiz-adv-x="729" />
<glyph unicode="&#x2003;" horiz-adv-x="1459" />
<glyph unicode="&#x2004;" horiz-adv-x="486" />
<glyph unicode="&#x2005;" horiz-adv-x="364" />
<glyph unicode="&#x2006;" horiz-adv-x="243" />
<glyph unicode="&#x2007;" horiz-adv-x="243" />
<glyph unicode="&#x2008;" horiz-adv-x="182" />
<glyph unicode="&#x2009;" horiz-adv-x="291" />
<glyph unicode="&#x200a;" horiz-adv-x="81" />
<glyph unicode="&#x202f;" horiz-adv-x="291" />
<glyph unicode="&#x205f;" horiz-adv-x="364" />
<glyph unicode="&#x25fc;" horiz-adv-x="1445" d="M0 0v1445h1445v-1445h-1445z" />
</font>
</defs>
</svg>
